<svg width="82" height="24" viewBox="0 0 82 24" fill="none" xmlns="http://www.w3.org/2000/svg">
<g clip-path="url(#clip0_52_126)">
<path fill-rule="evenodd" clip-rule="evenodd" d="M53.1939 0.0187988H28.6941V23.1669H53.1939V0.0187988ZM43.7548 11.066C43.7548 11.066 45.8915 10.1533 45.8731 7.73121C45.8731 7.73121 46.1979 3.7633 40.9536 3.27885H35.1331V19.9151H41.8038C41.8038 19.9151 47.3781 19.9339 47.3781 15.2204C47.3781 15.2204 47.5081 12.0162 43.7548 11.066ZM41.2091 17.3442C41.2091 17.3442 44.3308 17.4933 44.3308 14.9783C44.3308 14.9783 44.4237 12.7801 41.2091 12.7986H38.0875V17.3442H41.2091ZM40.4659 5.86832H38.0875V10.1718H40.1128C40.1128 10.1718 42.8442 10.1344 42.8442 7.84304C42.8442 7.84304 42.9371 5.99888 40.4659 5.86832Z" fill="#171717"/>
<path fill-rule="evenodd" clip-rule="evenodd" d="M24.6939 0.0187988H0.194092V23.1669H24.6939V0.0187988ZM15.2548 11.066C15.2548 11.066 17.3915 10.1533 17.3731 7.73121C17.3731 7.73121 17.6979 3.7633 12.4536 3.27885H6.63311V19.9151H13.3038C13.3038 19.9151 18.8781 19.9339 18.8781 15.2204C18.8781 15.2204 19.0081 12.0162 15.2548 11.066ZM12.7091 17.3442C12.7091 17.3442 15.8308 17.4933 15.8308 14.9783C15.8308 14.9783 15.9237 12.7801 12.7091 12.7986H9.58747V17.3442H12.7091ZM11.966 5.86832H9.58747V10.1718H11.6128C11.6128 10.1718 14.3442 10.1344 14.3442 7.84304C14.3442 7.84304 14.4371 5.99888 11.966 5.86832Z" fill="#171717"/>
<path fill-rule="evenodd" clip-rule="evenodd" d="M81.6203 23.1666H57.1202V0.0185547H81.6203V23.1666ZM76.6215 7.54507V4.47116C73.9087 3.33481 72.0321 3.14837 72.0321 3.14837C68.892 2.85036 67.1452 3.52103 67.1452 3.52103C60.6045 5.53305 60.809 11.5926 60.809 11.5926C60.995 17.4844 65.9004 19.2818 65.9004 19.2818C71.7349 21.5919 76.77 18.5927 76.77 18.5927V15.4069C73.017 17.8102 70.2483 17.4748 70.2483 17.4748C63.6522 17.1581 63.8751 11.5926 63.8751 11.5926C64.1538 5.54267 70.3226 5.66339 70.3226 5.66339C73.6299 5.70072 76.6215 7.54507 76.6215 7.54507Z" fill="#171717"/>
</g>
<defs>
<clipPath id="clip0_52_126">
<rect width="81.75" height="23.25" fill="white"/>
</clipPath>
</defs>
</svg>
