<svg width="87" height="30" viewBox="0 0 87 30" fill="none" xmlns="http://www.w3.org/2000/svg">
<g clip-path="url(#clip0_52_119)">
<path fill-rule="evenodd" clip-rule="evenodd" d="M30.375 22.5C34.301 22.5 37.5 19.4772 37.5 15.375C37.5 11.2439 34.301 8.25 30.375 8.25C26.449 8.25 23.25 11.2439 23.25 15.375C23.25 19.4772 26.449 22.5 30.375 22.5ZM30.375 11.0576C32.5269 11.0576 34.381 12.8116 34.381 15.375C34.381 17.9095 32.5269 19.6924 30.375 19.6924C28.2231 19.6924 26.369 17.9128 26.369 15.375C26.369 12.8116 28.2231 11.0576 30.375 11.0576Z" fill="#171717"/>
<path fill-rule="evenodd" clip-rule="evenodd" d="M45.375 22.5C49.301 22.5 52.5 19.4772 52.5 15.375C52.5 11.2439 49.301 8.25 45.375 8.25C41.449 8.25 38.25 11.2471 38.25 15.375C38.25 19.4772 41.449 22.5 45.375 22.5ZM45.375 11.0576C47.5269 11.0576 49.381 12.8116 49.381 15.375C49.381 17.9095 47.5269 19.6924 45.375 19.6924C43.2231 19.6924 41.369 17.9128 41.369 15.375C41.369 12.8116 43.2231 11.0576 45.375 11.0576Z" fill="#171717"/>
<path fill-rule="evenodd" clip-rule="evenodd" d="M67.5 21.7073V8.69138H64.5631V9.87165H64.4552C63.7599 9.0183 62.4264 8.25 60.7468 8.25C57.2257 8.25 54 11.4345 54 15.5279C54 19.5919 57.2257 22.7502 60.7468 22.7502C62.4295 22.7502 63.7631 21.9819 64.4552 21.1024H64.5631V22.1454C64.5631 24.9212 63.1249 26.3957 60.804 26.3957C58.9117 26.3957 57.7369 25.0029 57.2575 23.8226L54.5651 24.9768C55.3399 26.8992 57.3941 29.25 60.8072 29.25C64.433 29.25 67.5 27.0627 67.5 21.7073ZM61.0231 11.1076C63.128 11.1076 64.7822 12.9744 64.7822 15.5279C64.7822 18.0552 63.128 19.8959 61.0231 19.8959C58.8895 19.8959 57.1019 18.0552 57.1019 15.5279C57.1019 12.9744 58.8895 11.1076 61.0231 11.1076Z" fill="#171717"/>
<path d="M72.75 0.75V21.75H69.75V0.75H72.75Z" fill="#171717"/>
<path fill-rule="evenodd" clip-rule="evenodd" d="M86.8687 19.3423L84.513 17.7233C83.7277 18.9118 82.6553 19.6956 81.1095 19.6956C79.5668 19.6956 78.4665 18.9664 77.7593 17.537L87 13.5922L86.685 12.7826C86.112 11.1926 84.357 8.25 80.7698 8.25C77.208 8.25 74.25 11.1379 74.25 15.375C74.25 19.3712 77.1825 22.5 81.1095 22.5C84.276 22.5 86.109 20.5019 86.8687 19.3423ZM83.4375 12.516L77.2605 15.1597C77.1825 12.41 79.3298 11.0062 80.8725 11.0062C82.0755 11.0062 83.0977 11.6262 83.4375 12.516Z" fill="#171717"/>
<path d="M11.3207 13.3732V10.2994H21.5977C21.6982 10.8352 21.75 11.4689 21.75 12.1548C21.75 14.4611 21.1245 17.3127 19.1087 19.3445C17.1479 21.4025 14.6426 22.5 11.3239 22.5C5.17255 22.5 0 17.4499 0 11.25C0 5.05009 5.17255 0 11.3239 0C14.7269 0 17.1511 1.34581 18.9725 3.09996L16.8206 5.26894C15.5144 4.03419 13.7449 3.07382 11.3207 3.07382C6.82868 3.07382 3.31549 6.72256 3.31549 11.25C3.31549 15.7775 6.82868 19.4262 11.3207 19.4262C14.2343 19.4262 15.8936 18.247 16.9567 17.1755C17.8187 16.3067 18.3859 15.0653 18.6095 13.37L11.3207 13.3732Z" fill="#171717"/>
</g>
<defs>
<clipPath id="clip0_52_119">
<rect width="87" height="29.25" fill="white"/>
</clipPath>
</defs>
</svg>
