<svg width="118" height="18" viewBox="0 0 118 18" fill="none" xmlns="http://www.w3.org/2000/svg">
<g clip-path="url(#clip0_52_142)">
<path d="M111.58 7.90579V10.3561H113.302V12.7872C113.308 13.0045 113.296 13.2387 113.258 13.4262C113.19 13.8797 112.759 14.6518 111.537 14.6518C110.322 14.6518 109.899 13.8797 109.826 13.4262C109.795 13.2387 109.782 13.0045 109.782 12.7872V5.10858C109.782 4.83698 109.8 4.53969 109.857 4.31468C109.941 3.90543 110.304 3.09837 111.528 3.09837C112.813 3.09837 113.134 3.94923 113.207 4.31468C113.256 4.55674 113.258 4.96275 113.258 4.96275V5.89515H117.49V5.34395C117.49 5.34395 117.509 4.7688 117.458 4.23206C117.14 1.08039 114.543 0.083271 111.565 0.083271C108.582 0.083271 106.038 1.08967 105.667 4.23206C105.634 4.51941 105.583 5.03631 105.583 5.34395V12.4075C105.583 12.7152 105.593 12.9533 105.65 13.5155C105.926 16.5805 108.582 17.6669 111.553 17.6669C114.543 17.6669 117.181 16.5805 117.462 13.5155C117.511 12.9533 117.517 12.7152 117.523 12.4075V7.90579H111.58ZM82.4055 0.535234H78.1564V12.9643C78.1631 13.1809 78.1564 13.4243 78.1191 13.6027C78.0304 14.0199 77.6768 14.8229 76.5045 14.8229C75.3473 14.8229 74.9845 14.0199 74.9025 13.6027C74.86 13.4243 74.8546 13.1809 74.86 12.9643V0.535234H70.6122V12.5786C70.6068 12.889 70.6311 13.5233 70.6495 13.6894C70.9427 16.8277 73.4161 17.8466 76.5045 17.8466C79.599 17.8466 82.0709 16.8277 82.3695 13.6894C82.393 13.5233 82.4238 12.889 82.4055 12.5786V0.535234ZM43.3641 0.535234L41.2445 13.6683L39.1262 0.535234H32.2721L31.9086 17.3362H36.1076L36.2213 1.78304L39.1104 17.3362H43.3708L46.2625 1.78304L46.3766 17.3362H50.5862L50.2104 0.535234H43.3641ZM17.987 0.535234L14.8749 17.3362H19.4133L21.7585 1.78304L24.0475 17.3362H28.5544L25.4551 0.535234H17.987ZM97.2553 14.062L93.2988 0.535234H87.0641V17.161H91.1885L90.949 3.20149L95.1981 17.161H101.178V0.535234H97.0262L97.2553 14.062ZM59.1053 4.90774C59.0307 4.57594 59.0523 4.22343 59.0909 4.03919C59.211 3.50136 59.5724 2.91478 60.6135 2.91478C61.5839 2.91478 62.1528 3.5197 62.1528 4.42751V5.45484H66.2949V4.28383C66.2949 0.663811 63.0494 0.0951366 60.6996 0.0951366C57.7402 0.0951366 55.3233 1.07069 54.8819 3.79455C54.7652 4.53581 54.7363 5.1938 54.922 6.03344C55.6417 9.42974 61.5544 10.415 62.4125 12.5628C62.564 12.9697 62.5206 13.4886 62.4434 13.7943C62.3148 14.3532 61.9388 14.9154 60.8241 14.9154C59.7786 14.9154 59.1493 14.3144 59.1493 13.4085L59.148 11.7961H54.6897V13.0778C54.6897 16.7917 57.5986 17.9122 60.7318 17.9122C63.7324 17.9122 66.2108 16.8868 66.6084 14.1073C66.798 12.6711 66.655 11.7357 66.5788 11.3834C65.8841 7.89997 59.5823 6.85215 59.1053 4.90774ZM4.46569 4.86653C4.38436 4.52783 4.40334 4.17036 4.44865 3.98396C4.56342 3.44872 4.92693 2.85179 5.9864 2.85179C6.96907 2.85179 7.54767 3.46253 7.54767 4.37768V5.41752H11.7383V4.23723C11.7383 0.582481 8.44318 -3.8147e-06 6.06773 -3.8147e-06C3.08348 -3.8147e-06 0.645045 0.99065 0.198906 3.73414C0.0768007 4.48727 0.0558677 5.14979 0.232338 5.9987C0.959794 9.43362 6.93088 10.4269 7.79965 12.6004C7.96231 13.0045 7.91312 13.5233 7.83244 13.8409C7.69458 14.4057 7.31554 14.9758 6.19157 14.9758C5.14202 14.9758 4.51424 14.3644 4.51424 13.4461L4.50841 11.8294H0V13.1141C0 16.8704 2.95016 18 6.10765 18C9.14324 18 11.636 16.9656 12.0427 14.1539C12.2448 12.7046 12.0932 11.7614 12.025 11.4037C11.3159 7.87753 4.94398 6.83316 4.46569 4.86653Z" fill="#171717"/>
</g>
<defs>
<clipPath id="clip0_52_142">
<rect width="117.523" height="18" fill="white"/>
</clipPath>
</defs>
</svg>
