<svg width="98" height="28" viewBox="0 0 98 28" fill="none" xmlns="http://www.w3.org/2000/svg">
<g clip-path="url(#clip0_52_130)">
<mask id="mask0_52_130" style="mask-type:luminance" maskUnits="userSpaceOnUse" x="0" y="0" width="98" height="28">
<path d="M97.5 0H0V27.75H97.5V0Z" fill="white"/>
</mask>
<g mask="url(#mask0_52_130)">
<path d="M47.1367 4.49801L47.9363 4.95976C49.1227 5.63526 49.372 6.19105 48.9594 7.52499C48.2888 9.66264 47.5924 11.8003 46.9046 13.9295L45.0562 19.6499C44.9684 19.8909 44.9506 20.1516 45.0046 20.4023C45.1594 20.257 45.3227 20.1201 45.4688 19.9577C48.9078 16.1555 52.321 12.3504 55.7083 8.54251C57.3591 6.69555 57.8921 6.61859 59.9039 8.06364C60.1837 8.26366 60.4507 8.48071 60.7035 8.71351C61.045 8.99071 61.2898 9.36826 61.4025 9.79216C61.5152 10.2161 61.4902 10.6646 61.3311 11.0735C60.6089 13.1941 59.9211 15.3488 59.2247 17.4609C59.1473 17.7089 59.0785 17.9568 58.941 18.41L63.8587 13.844C65.1741 12.6212 66.5067 11.3984 67.8049 10.1501C68.1923 9.76336 68.5328 9.33294 68.8194 8.86741C68.87 8.72161 68.9545 8.58961 69.0658 8.48221C69.1772 8.37481 69.3125 8.29501 69.4606 8.24926C69.6088 8.20344 69.7657 8.19301 69.9187 8.21866C70.0716 8.24439 70.2163 8.30551 70.3411 8.39716C71.0518 8.80929 71.7274 9.27826 72.3616 9.79944C72.6362 10.0167 72.8336 10.3157 72.9249 10.6528C73.0162 10.9898 72.9965 11.347 72.8688 11.672C72.2068 13.7585 71.5362 15.8363 70.8742 17.9226C70.8055 18.1364 70.7624 18.3502 70.6507 18.7777L77.3392 11.7917C78.474 10.6032 79.6005 9.40614 80.7787 8.23464C81.0397 7.89766 81.3682 7.61844 81.744 7.41489C82.1197 7.21135 82.5337 7.08794 82.9605 7.05254C83.3865 7.01713 83.8155 7.07052 84.2205 7.20928C84.6247 7.34804 84.9952 7.56916 85.3095 7.85844C85.7737 8.20899 86.2552 8.54251 86.6932 8.92726C86.9272 9.09376 87.1252 9.30444 87.2767 9.54721C87.4282 9.78999 87.5295 10.0601 87.576 10.3421C87.6225 10.6241 87.6127 10.9124 87.5467 11.1905C87.4807 11.4686 87.36 11.7311 87.192 11.9628C86.2462 13.6729 85.2487 15.383 84.4237 17.2214C84.0037 18.303 83.6782 19.4188 83.4525 20.5562C83.3947 20.8672 83.3947 21.1859 83.4525 21.4968C83.4435 21.8194 83.523 22.1382 83.6805 22.4199C83.8387 22.7016 84.0705 22.9357 84.351 23.0976C84.6322 23.2595 84.951 23.3432 85.2757 23.3398C85.5997 23.3365 85.9177 23.2463 86.1945 23.0787C87.7582 22.31 89.0415 21.0755 89.8657 19.5473C91.1917 17.4593 91.9612 15.0698 92.1015 12.6041C92.1337 12.3698 92.0932 12.1315 91.9852 11.9207C91.878 11.7098 91.7085 11.5366 91.4992 11.4241C90.8632 11.0393 90.2617 10.569 89.6512 10.1843C89.247 9.90204 89.1435 9.44889 89.565 9.20086C90.7027 8.49571 91.899 7.88919 93.1417 7.38815C93.6022 7.21981 94.1092 7.22713 94.5652 7.40872C95.0205 7.59031 95.3925 7.93329 95.6092 8.37151C96.114 9.11064 96.4485 9.95146 96.5887 10.8341C96.8902 16.3664 95.1787 21.1634 90.8715 24.806C89.838 25.731 88.593 26.3906 87.2445 26.7275C85.8952 27.0643 84.4845 27.068 83.1345 26.7384C81.9787 26.4404 80.9505 25.7807 80.2012 24.8568C79.452 23.933 79.0215 22.7939 78.9727 21.608C78.882 18.953 79.524 16.3239 80.8297 14.0064L81.2767 13.1513C81.3037 13.0447 81.321 12.936 81.3285 12.8264C81.0022 13.1428 80.7697 13.348 80.5552 13.5788L69.2321 25.7209C68.166 26.8581 67.7104 26.918 66.4379 26.0629C65.9565 25.738 65.4779 25.4045 65.0022 25.0625C64.6983 24.8862 64.4706 24.6046 64.3627 24.2717C64.2547 23.9387 64.2743 23.5778 64.4176 23.2583C65.1139 21.4626 65.8276 19.6755 66.5325 17.8799C66.6697 17.5824 66.7374 17.2579 66.7303 16.9307L63.8673 19.6242C61.632 21.7334 59.3995 23.8454 57.1699 25.9603C56.2414 26.8154 55.8889 26.8154 54.8056 26.1313L53.3527 25.148C52.4929 24.5579 52.3038 24.2159 52.6305 23.207C53.602 20.1886 54.6251 17.2214 55.6224 14.186L56.4821 11.501L56.2586 11.3215C56.156 11.5184 56.0381 11.7071 55.9061 11.8858L44.1277 25.4387C42.838 26.918 42.4081 26.9864 40.7746 25.9261C38.3502 24.3356 38.2814 24.139 39.1669 21.4113L44.3254 5.39584C44.4372 5.05381 44.5747 4.71178 44.7381 4.2757H22.0151C21.5259 4.3346 21.0313 4.22386 20.6146 3.96216C20.198 3.70045 19.8849 3.30382 19.7282 2.83918C19.4617 2.18077 19.0834 1.56512 18.7996 0.915269C18.516 0.265417 18.6707 0.0601997 19.3585 0.00889546H71.5792C72.1046 -0.0631897 72.6388 0.052903 73.086 0.336427C73.5333 0.619951 73.8646 1.05243 74.0209 1.55657C74.2272 2.09527 74.5367 2.59976 74.786 3.12135C75.207 4.02772 75.0615 4.26715 74.0896 4.2928H47.1797L47.1367 4.49801Z" fill="#171717"/>
<path d="M7.57103 18.2904L10.0213 16.1869C11.8439 14.6136 13.6236 12.9718 15.5064 11.4755C16.5993 10.5955 17.4363 9.4413 17.9309 8.13217C18.4382 6.88376 18.9883 6.7384 20.1319 7.48231C22.3328 8.9274 22.4273 9.31215 21.5934 11.7577C20.6563 14.5281 19.7965 17.3242 18.9024 20.1117C18.8594 20.2485 18.8423 20.4024 18.7649 20.7701L21.5848 17.7004L30.1392 8.29462C31.446 6.85811 32.5551 6.74695 34.3261 7.57635C35.0797 7.87417 35.7132 8.4111 36.1283 9.1038C36.5434 9.79657 36.7169 10.6063 36.6217 11.407C36.5099 15.3404 36.5013 19.2737 36.4755 23.207C36.4971 23.6581 36.3857 24.1054 36.155 24.4943C35.9244 24.8832 35.5846 25.1966 35.1773 25.396C34.4035 25.815 33.6469 26.2511 32.8904 26.6872C32.5613 26.8863 32.1894 27.0048 31.8053 27.0331C31.4212 27.0614 31.0358 26.9984 30.6808 26.8496C27.6718 25.7209 27.3451 25.225 27.517 21.8903C27.56 21.0352 27.9039 20.7701 28.7636 21.0865C29.6234 21.4028 30.2252 21.6936 31.0763 22.0442V10.9282C30.913 11.0821 30.7496 11.2104 30.6121 11.3728L18.0082 25.5671C16.8218 26.9009 16.2888 26.9865 14.8358 25.9946C14.3544 25.6611 13.8815 25.3277 13.4173 24.977C13.0835 24.7712 12.8306 24.4577 12.7008 24.089C12.571 23.7204 12.572 23.3186 12.7037 22.9505C13.1336 21.591 13.5635 20.2485 14.0535 18.9061C14.1671 18.6354 14.2226 18.3442 14.2168 18.051L11.3195 20.7188L5.48185 26.1058C4.68229 26.8411 4.45875 26.8582 3.53883 26.2511C2.98859 25.8834 2.43836 25.5158 1.88813 25.1396C0.83064 24.4213 0.675889 24.0194 1.08857 22.8052C2.11166 19.7782 3.16055 16.7683 4.19223 13.7414C4.43296 13.0488 4.94021 12.2536 4.76826 11.6722C4.59631 11.0907 3.69359 10.8171 3.11756 10.4066C2.94561 10.2869 2.76506 10.1672 2.59311 10.039C2.15465 9.70552 2.10306 9.2865 2.59311 9.00435C3.70004 8.30085 4.84843 7.6641 6.03208 7.09753C6.51508 6.98706 7.02224 7.06348 7.45065 7.3113C8.10578 7.70175 8.72948 8.142 9.31628 8.62807C9.5202 8.71605 9.7029 8.84625 9.8523 9.0099C10.0016 9.17355 10.1142 9.36705 10.1826 9.57735C10.2509 9.78772 10.2734 10.0101 10.2485 10.2298C10.2237 10.4494 10.1521 10.6613 10.0385 10.8513C9.2733 13.0402 8.49098 15.2293 7.7172 17.4182C7.62263 17.6833 7.5366 17.9484 7.44206 18.2134L7.57103 18.2904Z" fill="#171717"/>
</g>
</g>
<defs>
<clipPath id="clip0_52_130">
<rect width="97.5" height="27.75" fill="white"/>
</clipPath>
</defs>
</svg>
