<svg width="388" height="388" viewBox="0 0 388 388" fill="none" xmlns="http://www.w3.org/2000/svg">
<rect width="388" height="388" fill="var(--illustration-surface)"/>
<path d="M121.393 195.467C129.147 190.759 147.482 184.168 158.781 195.467L161.274 216.238C161.274 216.238 168.751 216.238 169.582 219.969C185.922 222.462 219.267 229.275 221.926 236.586C224.584 243.898 230.234 260.127 232.727 267.328C142.995 332.965 90.6514 294.746 53.2632 267.328C55.2018 259.573 60.0761 242.569 64.0642 236.586C68.0523 230.604 97.2982 223.016 110.592 219.969C113.084 216.238 118.069 216.238 118.069 216.238L121.393 195.467Z" fill="var(--illustration-surface)"/>
<path d="M121.393 195.467C129.147 190.759 147.482 184.168 158.781 195.467L161.274 216.238C161.274 216.238 168.751 216.238 169.582 219.969C148.977 246.895 121.393 231.053 110.592 219.969C113.084 216.238 118.069 216.238 118.069 216.238L121.393 195.467Z" fill="var(--illustration-surface)"/>
<path d="M161.274 216.238L158.781 195.467C147.482 184.168 129.147 190.759 121.393 195.467L118.069 216.238M161.274 216.238C156.565 223.162 141.333 232.855 118.069 216.238M161.274 216.238C161.274 216.238 168.751 216.238 169.582 219.969M118.069 216.238C118.069 216.238 113.084 216.238 110.592 219.969M110.592 219.969C121.393 231.053 148.977 246.895 169.582 219.969M110.592 219.969C97.2982 223.016 68.0523 230.604 64.0642 236.586C60.0761 242.569 46.8933 303.744 44.9547 311.499C43.293 317.038 42.6282 324.46 46.6163 333.101M169.582 219.969C185.922 222.462 219.267 229.275 221.926 236.586C224.584 243.898 230.234 260.127 232.727 267.328L242.5 311.499C244.656 316.297 247.673 327.335 242.5 333.101" stroke="var(--illustration-line-work)" stroke-width="1.79778" stroke-linecap="round"/>
<path d="M88.108 136.608C71.1331 129.333 76.7913 110.742 86.3637 114.92L86.3637 92.8497C86.3637 92.8497 115.443 64.6008 140.369 55.4614C155.645 52.3601 165.652 51.7493 178.588 60.4465C192.739 69.9607 196.036 97.8348 196.036 97.8348L195.616 109.933C202.268 106.612 203.7 117.208 194.547 126.065L196.036 132.73V149.347L178.588 167.626L143.692 156.825L115.443 167.626L88.8563 143.531L88.108 136.608Z" fill="var(--illustration-skin-tone-primary)"/>
<path d="M195.616 109.933C202.268 106.612 203.7 117.208 194.547 126.065L196.036 132.73V149.347L178.588 167.626L143.692 156.825L115.443 167.626L88.8563 143.531L88.108 136.608C71.1331 129.333 76.7913 110.742 86.3637 114.92L86.3637 92.8497C86.3637 92.8497 115.443 64.6008 140.369 55.4614C155.645 52.3601 165.652 51.7493 178.588 60.4465C192.739 69.9607 196.036 97.8348 196.036 97.8348L195.616 109.933ZM195.616 109.933L193.094 119.526" stroke="var(--illustration-line-work)" stroke-width="1.79778" stroke-linecap="round"/>
<path d="M151.003 98.9088C152.621 98.3287 151.282 95.2337 150.486 91.1074C148.386 88.4372 124.115 97.1381 124.612 101.067C133.199 102.096 149.385 99.4888 151.003 98.9088Z" fill="var(--illustration-line-work)" stroke="var(--illustration-line-work)" stroke-width="1.79778"/>
<path d="M145.584 115.418C141.951 115.418 141.951 127.05 145.584 127.05C151.497 127.05 150.082 115.418 145.584 115.418Z" fill="var(--illustration-line-work)" stroke="var(--illustration-line-work)" stroke-width="1.79778"/>
<path d="M179.036 115.438C181.761 115.438 181.761 125.408 179.036 125.408C174.602 125.408 175.662 115.438 179.036 115.438Z" fill="var(--illustration-line-work)" stroke="var(--illustration-line-work)" stroke-width="1.79778"/>
<path d="M152.83 141.019C156.438 143.527 165.478 147.038 172.771 141.019C174.197 139.841 169.447 111.128 170.278 106.143" stroke="var(--illustration-line-work)" stroke-width="1.79778" stroke-linecap="round"/>
<path d="M140.367 56.7205C115.441 65.8598 88.0235 106.974 86.3617 106.143C86.0848 97.9691 77.2225 85.3721 78.8841 74.5711C81.3269 66.0215 93.3579 53.1839 101.317 45.6623V42.9988C101.317 42.1679 107.133 38.0137 108.795 37.1828C110.124 36.5182 112.118 38.8445 112.118 38.8445C112.118 38.8445 132.943 33.0746 146.183 34.6903C158.357 36.1759 163.631 43.8296 163.631 43.8296C180.621 36.0906 204.534 28.3045 218.467 34.6903C238.407 43.8296 222.158 70.1169 218.467 74.5711C213.728 80.2893 209.079 86.8288 196.001 94.8214C196.001 94.8214 192.737 71.2198 178.586 61.7056C165.65 53.0084 155.643 53.6192 140.367 56.7205Z" fill="var(--illustration-clothing-secondary)"/>
<path d="M140.367 56.7205C115.441 65.8598 88.0235 106.974 86.3617 106.143C86.0848 97.9691 77.2225 85.3721 78.8841 74.5711C81.3269 66.0215 93.3579 53.1839 101.317 45.6623M140.367 56.7205C155.643 53.6192 165.65 53.0084 178.586 61.7056C192.737 71.2198 196.001 94.8214 196.001 94.8214C209.079 86.8288 213.728 80.2893 218.467 74.5711C222.158 70.1169 238.407 43.8296 218.467 34.6903C204.534 28.3045 180.621 36.0906 163.631 43.8296M140.367 56.7205C140.367 56.7205 145.712 52.8962 154.89 48.0993C157.504 46.733 160.43 45.2878 163.631 43.8296M112.118 38.8445C112.118 38.8445 132.943 33.0746 146.183 34.6903C158.357 36.1759 163.631 43.8296 163.631 43.8296M112.118 38.8445C112.118 38.8445 110.124 36.5182 108.795 37.1828C107.133 38.0137 101.317 42.1679 101.317 42.9988C101.317 43.6635 101.317 45.0514 101.317 45.6623M112.118 38.8445C112.118 38.8445 104.187 42.9506 101.317 45.6623" stroke="var(--illustration-line-work)" stroke-width="1.79778" stroke-linecap="round"/>
<path d="M161.242 43.3216C161.242 43.3216 157.898 37.6057 145.724 36.1201C149.062 39.9173 152.775 41.2248 153.251 47.3173C155.865 45.951 158.041 44.7798 161.242 43.3216Z" fill="var(--illustration-clothing-tertiary)"/>
<path d="M155.457 344.733C145.45 351.273 136.752 347.72 135.516 346.805C135.516 346.805 50.2158 348.693 53.2622 344.237C47.3542 335.098 43.6244 330.437 51.6006 323.34C59.5767 316.243 120.007 325.747 138.009 329.723C152.859 324.151 163.635 319.634 166.28 320.473C168.111 321.487 181.014 317.885 184.359 317.78C186.497 317.714 193.959 323.91 196.511 326.05C198.552 327.762 201.126 328.836 203.12 330.946C203.806 335.548 197.507 332.735 195.184 332.128C196.854 334.034 198.579 335.927 199.868 337.311C201.405 341.018 207 344.379 203.802 346.805C200.69 349.166 196.371 342.032 195.427 341.332C194.672 340.773 191.444 337.148 187.645 334.204C190.052 337.205 192.034 341.11 193.329 344.165C194.534 346.618 196.384 353.396 195.742 354.725C195.037 356.186 192.577 356.037 191.633 355.338C187.227 357.338 184.68 351.893 183.957 348.921L177.348 344.025L169.585 342.661L163.01 343.641L155.457 344.733Z" fill="var(--illustration-skin-tone-primary)"/>
<path d="M155.457 344.733C145.45 351.273 136.752 347.72 135.516 346.805C135.516 346.805 50.2158 348.693 53.2622 344.237C47.3542 335.098 43.6244 330.437 51.6006 323.34C59.5767 316.243 120.007 325.747 138.009 329.723C152.859 324.151 163.635 319.634 166.28 320.473C168.111 321.487 181.014 317.885 184.359 317.78C186.497 317.714 193.959 323.91 196.511 326.05C198.552 327.762 201.126 328.836 203.12 330.946C203.806 335.548 197.507 332.735 195.184 332.128M155.457 344.733C155.647 344.609 156.925 343.2 157.118 343.071M155.457 344.733L163.01 343.641L169.585 342.661L177.348 344.025L183.957 348.921C184.68 351.893 187.227 357.338 191.633 355.338M191.633 355.338L188.398 344.899L180.6 337.661C178.205 336.617 172.732 334.465 170.004 334.199M191.633 355.338C192.577 356.037 195.037 356.186 195.742 354.725C196.384 353.396 194.534 346.618 193.329 344.165C192.034 341.11 190.052 337.205 187.645 334.204M187.645 334.204C186.533 333.341 186.627 333.009 184.796 331.995C182.965 330.982 172.613 330.282 171.857 329.723M187.645 334.204C191.444 337.148 194.672 340.773 195.427 341.332C196.371 342.032 200.69 349.166 203.802 346.805C207 344.379 201.405 341.018 199.868 337.311C198.579 335.927 196.854 334.034 195.184 332.128M171.857 323.962C175.389 325.116 185.447 323.158 188.398 324.793C190.229 325.806 192.103 328.613 195.184 332.128" stroke="var(--illustration-line-work)" stroke-width="1.79778" stroke-linecap="round"/>
<path d="M159.174 195.389C147.875 184.089 129.541 190.681 121.786 195.389L118.463 216.16C141.726 232.777 156.959 223.084 161.667 216.16L159.174 195.389Z" fill="var(--illustration-skin-tone-primary)" stroke="var(--illustration-line-work)" stroke-width="1.8" stroke-linecap="round"/>
<path d="M299.034 279.302C297.205 280.217 290.079 288.638 285.888 292.448L247.255 334.979C243.245 338.21 233.833 343.049 228.263 336.564C222.692 330.079 223.69 321.703 228.834 316.559L279.029 277.587C283.792 272.824 290.679 266.146 291.136 265.689C291.708 265.117 292.576 257.983 295.033 254.724C296.847 252.318 301.996 251.399 301.996 251.399C299.211 247.927 296.44 246.33 295.709 245.112C294.337 242.825 294.566 238.253 297.424 239.968L302.568 242.825L305.997 247.398L311.142 253.685C313.999 256.543 309.59 250.718 307.407 245.378C306.468 243.082 302.409 238.875 301.996 236.538C300.624 228.765 303.711 231.013 305.426 233.109C305.426 234.032 309.358 237.03 311.532 240.512L314.763 237.281C313.676 235.251 312.244 232.56 310.466 229.003C305.893 219.858 312.18 222.716 312.752 222.144C313.09 221.806 316.226 227.863 319.205 233.579C322.081 231.296 324.103 231.482 324.755 231.861C328.413 234.605 324.512 237.82 322.104 239.085C322.98 240.711 323.714 242.017 324.184 242.721C324.642 243.409 325.009 244.65 325.288 246.189L331.042 238.149V226.717C330.585 215.285 334.281 216.238 336.187 218.143C336.187 218.143 337.764 232.34 336.884 240.561C336.847 240.911 336.805 241.251 336.758 241.578C335.996 243.484 334.406 246.472 332.627 249.607C331.616 251.388 330.543 253.217 329.526 254.923C327.041 260.44 324.755 262.726 324.755 262.726C322.469 263.87 315.139 269.894 314.094 270.355C310.128 272.106 301.32 278.159 299.034 279.302Z" fill="var(--illustration-skin-tone-primary)"/>
<path d="M324.755 262.726C322.469 263.87 315.139 269.894 314.094 270.355C310.128 272.106 301.32 278.159 299.034 279.302C297.205 280.217 290.079 288.638 285.888 292.448L247.255 334.979C243.245 338.21 233.833 343.049 228.263 336.564C222.692 330.079 223.69 321.703 228.834 316.559L279.029 277.587C283.792 272.824 290.679 266.146 291.136 265.689C291.708 265.117 292.576 257.983 295.033 254.724C296.847 252.318 301.996 251.399 301.996 251.399M324.755 262.726C326.987 259.718 326.401 252.319 325.288 246.189M324.755 262.726C324.755 262.726 327.041 260.44 329.526 254.923C330.543 253.217 331.616 251.388 332.627 249.607C334.406 246.472 335.996 243.484 336.758 241.578C336.805 241.251 336.847 240.911 336.884 240.561C337.764 232.34 336.187 218.143 336.187 218.143C334.281 216.238 330.585 215.285 331.042 226.717V238.149L325.288 246.189M317.896 250.152C317.706 248.056 317.325 243.636 317.325 242.721C317.325 242.023 316.471 240.47 314.763 237.281M317.896 250.152L319.842 254.13M317.896 250.152C317.026 248.895 316.753 248.447 315.61 246.722C314.522 245.081 312.57 242.175 311.532 240.512M325.288 246.189C325.009 244.65 324.642 243.409 324.184 242.721C323.714 242.017 322.98 240.711 322.104 239.085M322.104 239.085C324.512 237.82 328.413 234.605 324.755 231.861C324.103 231.482 322.081 231.296 319.205 233.579M322.104 239.085C321.237 237.473 320.23 235.546 319.205 233.579M319.205 233.579C316.226 227.863 313.09 221.806 312.752 222.144C312.18 222.716 305.893 219.858 310.466 229.003C312.244 232.56 313.676 235.251 314.763 237.281M314.763 237.281L311.532 240.512M311.532 240.512C309.358 237.03 305.426 234.032 305.426 233.109C303.711 231.013 300.624 228.765 301.996 236.538C302.409 238.875 306.468 243.082 307.407 245.378C309.59 250.718 313.999 256.543 311.142 253.685L305.997 247.398L302.568 242.825L297.424 239.968C294.566 238.253 294.337 242.825 295.709 245.112C296.44 246.33 299.211 247.927 301.996 251.399M301.996 251.399C304.436 254.44 305.997 258.83 307.14 259.973" stroke="var(--illustration-line-work)" stroke-width="2" stroke-linecap="round"/>
<path d="M243.636 150.129C247.353 148.642 249.208 140.016 249.775 134.992C239.202 131.776 227.016 114.197 226.363 97.7949C225.435 74.5247 246.709 62.5188 269.135 56.2405C289.171 50.6316 304.79 52.9714 321.663 65.145C335.857 75.3861 347.055 85.5406 345.676 102.989C344.214 121.477 329.74 129.9 312.658 137.123C295.654 144.314 274.022 144.294 263.517 139.842C261.615 143.729 251.746 148.421 243.636 150.129C243.275 150.273 242.896 150.35 242.5 150.35C242.874 150.283 243.253 150.209 243.636 150.129Z" fill="var(--illustration-surface)"/>
<path d="M249.775 134.992L250.769 135.104C250.823 134.625 250.527 134.175 250.066 134.035L249.775 134.992ZM242.5 150.35L242.324 149.366C241.814 149.457 241.458 149.922 241.504 150.438C241.55 150.954 241.982 151.35 242.5 151.35V150.35ZM263.517 139.842L263.907 138.921C263.418 138.714 262.852 138.925 262.618 139.402L263.517 139.842ZM226.363 97.7949L225.363 97.8348L226.363 97.7949ZM269.135 56.2405L268.866 55.2776L269.135 56.2405ZM321.663 65.145L321.078 65.956L321.663 65.145ZM345.676 102.989L344.679 102.91V102.91L345.676 102.989ZM312.658 137.123L312.269 136.202V136.202L312.658 137.123ZM249.775 134.992L248.781 134.88C248.503 137.348 247.908 140.686 246.939 143.568C246.454 145.01 245.887 146.3 245.242 147.302C244.59 148.316 243.919 148.938 243.264 149.2L243.636 150.129L244.007 151.057C245.211 150.576 246.166 149.562 246.924 148.384C247.691 147.193 248.32 145.734 248.834 144.206C249.863 141.147 250.48 137.66 250.769 135.104L249.775 134.992ZM243.636 150.129L243.264 149.2C243.016 149.3 242.763 149.35 242.5 149.35V150.35V151.35C243.03 151.35 243.534 151.247 244.007 151.057L243.636 150.129ZM242.5 150.35L242.676 151.334C243.06 151.266 243.449 151.19 243.841 151.107L243.636 150.129L243.43 149.15C243.056 149.229 242.687 149.301 242.324 149.366L242.5 150.35ZM243.636 150.129L243.842 151.107C247.985 150.235 252.562 148.605 256.354 146.696C258.251 145.741 259.974 144.704 261.358 143.642C262.722 142.594 263.839 141.459 264.415 140.281L263.517 139.842L262.618 139.402C262.244 140.169 261.414 141.077 260.14 142.056C258.884 143.02 257.277 143.992 255.455 144.91C251.81 146.745 247.397 148.315 243.43 149.15L243.636 150.129ZM249.775 134.992L250.066 134.035C245.106 132.526 239.582 127.554 235.188 120.793C230.814 114.063 227.68 105.74 227.362 97.7551L226.363 97.7949L225.363 97.8348C225.699 106.253 228.985 114.92 233.511 121.883C238.017 128.816 243.872 134.242 249.484 135.949L249.775 134.992ZM226.363 97.7949L227.362 97.7551C226.913 86.4874 231.817 77.949 239.633 71.4129C247.482 64.8486 258.252 60.3258 269.405 57.2035L269.135 56.2405L268.866 55.2776C257.592 58.4335 246.512 63.0528 238.35 69.8786C230.154 76.7326 224.885 85.8322 225.363 97.8348L226.363 97.7949ZM269.135 56.2405L269.405 57.2035C279.322 54.4272 288.084 53.6351 296.422 55.011C304.758 56.3863 312.739 59.9395 321.078 65.956L321.663 65.145L322.248 64.3341C313.714 58.1769 305.449 54.4734 296.748 53.0376C288.05 51.6024 278.984 52.4449 268.866 55.2776L269.135 56.2405ZM321.663 65.145L321.078 65.956C335.278 76.2017 346.011 86.0583 344.679 102.91L345.676 102.989L346.672 103.068C348.099 85.0229 336.436 74.5706 322.248 64.3341L321.663 65.145ZM345.676 102.989L344.679 102.91C343.268 120.753 329.368 128.972 312.269 136.202L312.658 137.123L313.048 138.044C330.111 130.829 345.16 122.202 346.672 103.068L345.676 102.989ZM312.658 137.123L312.269 136.202C303.898 139.742 294.362 141.515 285.612 141.849C276.844 142.184 268.973 141.068 263.907 138.921L263.517 139.842L263.127 140.762C268.566 143.068 276.763 144.188 285.689 143.848C294.632 143.507 304.414 141.695 313.048 138.044L312.658 137.123Z" fill="var(--illustration-line-work)"/>
<path d="M255.433 74.3667L276.45 76.7917L278.875 98.6167L268.367 101.85L272.408 123.675L255.433 93.7667H262.708L255.433 74.3667Z" fill="#EAB308" stroke="var(--illustration-line-work)" stroke-width="2" stroke-linejoin="round"/>
<path d="M160.05 215.8L157.531 194.581C155.911 192.961 154.147 191.709 152.291 190.767L154.815 220.515C157.142 218.93 158.914 217.47 160.05 215.8Z" fill="var(--illustration-skin-tone-secondary)"/>
<path d="M287.968 83.8983C295.082 76.1383 302.249 84.7066 304.943 91.9816C307.099 85.7844 313.35 78.7249 321.11 83.8983C328.87 89.0717 313.566 107.609 304.943 116.232C296.321 108.687 280.855 91.6583 287.968 83.8983Z" fill="#EF4444" stroke="var(--illustration-line-work)" stroke-width="2" stroke-linejoin="round"/>
<path d="M99.9591 187.713C91.983 180.402 86.4916 141.458 87.1919 130.238C87.3 128.525 86.7089 103.21 88.0228 104.481C88.4198 104.865 89.0728 122.875 94.6696 132.73C101.257 144.329 111.502 154.541 120.426 155.163C130.396 155.163 147.871 146.301 153.133 142.7C156.457 142.7 159.476 147.539 170.277 142.7C172.769 146.301 177.755 151.009 181.909 151.009C191.879 151.009 195.17 151.61 196.001 133.331C196.152 130.008 198.83 175.25 189.691 187.713C181.382 196.852 161.442 208.484 148.148 208.484C124.885 208.484 109.929 196.852 99.9591 187.713Z" fill="var(--illustration-line-work)" stroke="var(--illustration-line-work)" stroke-width="1.79778" stroke-linecap="round"/>
<path d="M166.205 173.27C170.335 173.27 180.248 179.367 180.248 161.81C170.721 161.81 171.223 155.735 165.172 156C159.921 156.23 154.116 164.52 144.521 164.859C144.521 183.151 162.074 173.27 166.205 173.27Z" fill="var(--illustration-skin-tone-primary)" stroke="var(--illustration-line-work)" stroke-width="1.79778" stroke-linecap="round"/>
<path d="M159.383 163.042C163.167 164.482 168.242 163.256 170.307 162.463C170.221 165.365 168.173 168.297 166.262 168.349C163.874 168.413 158.131 163.042 159.383 163.042Z" fill="var(--illustration-line-work)"/>
<path d="M170.307 162.463L169.985 161.624C170.265 161.516 170.582 161.556 170.827 161.73C171.072 161.904 171.214 162.189 171.205 162.49L170.307 162.463ZM159.383 163.042L159.383 162.143L159.549 162.143L159.703 162.202L159.383 163.042ZM166.262 168.349L166.287 169.247V169.247L166.262 168.349ZM170.307 162.463L170.629 163.302C169.529 163.725 167.67 164.249 165.591 164.483C163.521 164.717 161.145 164.674 159.064 163.882L159.383 163.042L159.703 162.202C161.406 162.85 163.459 162.914 165.389 162.697C167.31 162.48 169.02 161.994 169.985 161.624L170.307 162.463ZM170.307 162.463L171.205 162.49C171.157 164.129 170.559 165.754 169.709 166.986C168.886 168.176 167.671 169.21 166.287 169.247L166.262 168.349L166.238 167.45C166.765 167.436 167.529 166.978 168.229 165.964C168.901 164.991 169.371 163.699 169.408 162.437L170.307 162.463ZM166.262 168.349L166.287 169.247C165.418 169.271 164.421 168.827 163.553 168.325C162.641 167.797 161.694 167.097 160.877 166.406C160.064 165.719 159.341 165.006 158.89 164.44C158.687 164.184 158.452 163.853 158.357 163.519C158.313 163.364 158.232 162.977 158.48 162.605C158.751 162.197 159.18 162.143 159.383 162.143L159.383 163.042L159.383 163.941C159.43 163.941 159.758 163.929 159.976 163.601C160.172 163.307 160.088 163.035 160.086 163.027C160.074 162.986 160.101 163.074 160.297 163.321C160.646 163.759 161.273 164.386 162.038 165.033C162.798 165.677 163.657 166.308 164.454 166.769C165.296 167.256 165.912 167.459 166.238 167.45L166.262 168.349Z" fill="var(--illustration-line-work)"/>
<path d="M194.13 109.699C194.13 109.699 195.092 102.304 194.484 97.9262C192.015 80.1428 187.374 74.3963 186.37 72.2271C187.179 77.8854 188.376 83.2321 189.674 96.1918C191.34 99.7319 189.894 108.317 189.355 110.742C189.355 110.742 187.452 116.546 187.738 120.334C187.936 122.957 189.355 126.874 189.355 126.874V133.539C189.355 140.65 188.786 141.657 188.703 148.153C189.15 150.35 191.633 147.691 191.633 147.691L192.928 145.285C192.928 145.285 194.678 139.284 194.408 135.14C194.218 132.223 193.268 127.061 193.268 127.061L191.417 120.093L194.13 109.699Z" fill="var(--illustration-skin-tone-secondary)"/>
<path d="M173.267 96.5355C172.017 95.8631 173.397 93.3137 174.438 89.8116C176.39 87.7104 195.13 97.7963 194.349 101.158C187.322 101.158 174.516 97.2079 173.267 96.5355Z" fill="var(--illustration-line-work)" stroke="var(--illustration-line-work)" stroke-width="1.79778"/>
</svg>
