<svg width="388" height="388" viewBox="0 0 388 388" fill="none" xmlns="http://www.w3.org/2000/svg">
<rect width="388" height="388" fill="white"/>
<path d="M169.893 214.867C177.647 210.159 195.981 203.568 207.281 214.867L209.774 235.639C209.774 235.639 217.251 235.639 218.082 239.37C234.422 241.862 267.767 248.675 270.426 255.987C273.084 263.298 278.734 279.528 281.227 286.728C191.495 352.365 139.151 314.146 101.763 286.728C103.702 278.974 108.576 261.969 112.564 255.987C116.552 250.005 145.798 242.416 159.092 239.37C161.584 235.639 166.569 235.639 166.569 235.639L169.893 214.867Z" fill="white"/>
<path d="M169.893 214.867C177.647 210.159 195.981 203.568 207.281 214.867L209.774 235.639C209.774 235.639 217.251 235.639 218.082 239.37C197.477 266.296 169.893 250.453 159.092 239.37C161.584 235.639 166.569 235.639 166.569 235.639L169.893 214.867Z" fill="white"/>
<path d="M209.774 235.639L207.281 214.867C195.981 203.568 177.647 210.159 169.893 214.867L166.569 235.639M209.774 235.639C205.065 242.562 189.833 252.256 166.569 235.639M209.774 235.639C209.774 235.639 217.251 235.639 218.082 239.37M166.569 235.639C166.569 235.639 161.584 235.639 159.092 239.37M159.092 239.37C169.893 250.453 197.477 266.296 218.082 239.37M159.092 239.37C145.798 242.416 116.552 250.005 112.564 255.987C108.576 261.969 95.3933 323.144 93.4547 330.899C91.793 336.438 91.1282 343.86 95.1163 352.501M218.082 239.37C234.422 241.862 267.767 248.675 270.426 255.987C273.084 263.298 278.734 279.528 281.227 286.728L291 330.899C293.156 335.697 296.173 346.735 291 352.501" stroke="#171717" stroke-width="1.79778" stroke-linecap="round"/>
<path d="M131.758 156.008C114.784 148.733 120.442 130.142 130.014 134.32L130.014 112.25C130.014 112.25 143.208 88.986 168.134 79.8466C183.41 76.7453 189.15 75.7161 207.742 79.8466C230.375 84.8751 239.686 117.235 239.686 117.235L239.267 129.333C245.918 126.012 247.35 136.608 238.198 145.465L239.686 152.131V168.748L222.238 187.026L187.343 176.225L159.094 187.026L132.507 162.932L131.758 156.008Z" fill="#FDE8C3"/>
<path d="M239.267 129.333C245.918 126.012 247.35 136.608 238.198 145.465L239.686 152.131V168.748L222.238 187.026L187.343 176.225L159.094 187.026L132.507 162.932L131.758 156.008C114.784 148.733 120.442 130.142 130.014 134.32L130.014 112.25C130.014 112.25 143.208 88.986 168.134 79.8466C183.41 76.7453 189.15 75.7161 207.742 79.8466C230.375 84.8751 239.686 117.235 239.686 117.235L239.267 129.333ZM239.267 129.333L236.745 138.926" stroke="#171717" stroke-width="1.79778" stroke-linecap="round"/>
<path d="M202.52 121.546C201.192 121.047 202.217 118.336 202.78 114.726C204.432 112.382 224.355 119.866 224.031 123.302C217.067 124.244 203.848 122.045 202.52 121.546Z" fill="#171717" stroke="#171717" stroke-width="1.79778"/>
<path d="M174.584 134.818C170.951 134.818 170.951 146.45 174.584 146.45C180.497 146.45 179.083 134.818 174.584 134.818Z" fill="#171717" stroke="#171717" stroke-width="1.79778"/>
<path d="M208.037 134.838C210.761 134.838 210.761 144.809 208.037 144.809C203.602 144.809 204.663 134.838 208.037 134.838Z" fill="#171717" stroke="#171717" stroke-width="1.79778"/>
<path d="M181.831 160.419C185.439 162.927 194.479 166.438 201.771 160.419C203.198 159.242 198.448 130.529 199.279 125.543" stroke="#171717" stroke-width="1.79778" stroke-linecap="round"/>
<path d="M339.741 41.464C345.105 38.3589 351.517 36.1954 359.152 35.4536C359.906 43.2204 359.122 49.9959 357.259 55.8794M339.741 41.464C340.578 45.2936 345.254 53.5381 357.259 55.8794M339.741 41.464C331.626 46.1613 325.91 53.0133 321.993 60.3584M357.259 55.8794C354.363 65.0225 350.022 71.2914 342.481 77.2177M315.71 78.2184C311.819 76.0631 293.25 84.8601 293.25 84.8601C293.25 84.8601 304.015 45.5647 321.993 60.3584M315.71 78.2184C316.845 72.5254 318.834 66.2816 321.993 60.3584M315.71 78.2184C315.302 80.2677 315.004 82.2455 314.803 84.1114L320.168 88.5261C322.016 88.0233 323.957 87.3987 325.947 86.6423M325.947 86.6423L323.21 109.514C323.21 109.514 358.072 90.047 342.481 77.2177M325.947 86.6423C331.415 84.5641 337.907 80.8632 342.481 77.2177" stroke="#171717" stroke-width="2" stroke-linejoin="round"/>
<path d="M343.548 54.267C345.88 56.1854 346.214 59.6307 344.296 61.9619C342.378 64.2931 338.932 64.6279 336.601 62.7096C334.27 60.7913 333.935 57.346 335.853 55.0147C337.772 52.6833 341.217 52.3486 343.548 54.267Z" stroke="#171717" stroke-width="2"/>
<path d="M334.354 70.5294C334.439 68.6373 332.449 66.9997 330.608 67.4477C318.827 70.3151 308.451 99.4626 308.451 99.4626C308.451 99.4626 333.808 82.6422 334.354 70.5294Z" fill="white" stroke="#171717" stroke-width="2" stroke-linejoin="round"/>
<path d="M301.368 109.272C296.887 120.619 282.397 145.161 260.283 152.551" stroke="#171717" stroke-width="2" stroke-linecap="round" stroke-linejoin="round"/>
<path d="M58.2 115.739C62.681 127.086 77.1713 151.627 99.2848 159.018" stroke="#171717" stroke-width="2" stroke-linecap="round" stroke-linejoin="round"/>
<path d="M70.3609 23.5943C66.8253 27.889 34.8767 31.7075 19.3443 33.0799L24.5746 52.5997C25.4351 61.0165 27 77.892 26.3754 78.0594C25.7508 78.2268 33.562 93.4286 37.5457 101.009C45.1307 101.208 62.0185 101.146 68.8894 99.3049C75.7604 97.4638 87.8139 89.7709 92.9818 86.1546L86.4962 61.9501C84.8225 55.7038 82.3293 31.8243 81.292 20.6653C79.1214 19.8522 73.8965 19.2995 70.3609 23.5943Z" fill="white" stroke="#171717" stroke-width="2" stroke-linecap="round" stroke-linejoin="round"/>
<path d="M64.122 69.6192C62.6826 60.5803 60.7972 48.6397 60.4389 45.9876C59.8783 41.8384 48.2569 35.4937 47.0134 34.967C45.7699 34.4404 44.4884 39.943 43.5905 42.7632C43.0802 44.3662 46.6889 57.396 50.1878 69.1685M64.122 69.6192C64.4841 71.8932 64.818 73.9836 65.0922 75.6962C65.2139 76.8749 65.3328 78.5023 65.3714 80.1634M64.122 69.6192L72.9165 70.61L77.1008 86.2258L65.3714 80.1634M65.3714 80.1634C65.4424 83.219 65.2416 86.3889 64.287 87.0904C62.8133 88.1731 56.8976 84.1977 54.124 82.0747C53.9186 81.4192 53.7028 80.7267 53.4782 80.0028M50.1878 69.1685L39.2865 76.2738L43.6654 92.6159L53.4782 80.0028M50.1878 69.1685C51.3481 73.0724 52.4963 76.8379 53.4782 80.0028" stroke="#171717" stroke-linecap="round" stroke-linejoin="round"/>
<ellipse cx="50.3407" cy="45.6959" rx="1.61667" ry="1.61667" transform="rotate(-15 50.3407 45.6959)" fill="#171717"/>
<path d="M52.0144 51.9419C52.2455 52.8043 51.7334 52.854 50.8709 53.0851C50.0085 53.3162 49.122 52.8044 48.8909 51.942C48.6599 51.0795 49.1717 50.193 50.0341 49.9619C50.8965 49.7309 51.7833 51.0794 52.0144 51.9419Z" fill="#171717"/>
<path d="M207.228 216.406C195.929 205.107 177.595 211.698 169.84 216.406L166.517 237.177C189.78 253.794 205.013 244.101 209.721 237.177L207.228 216.406Z" fill="#FDE8C3" stroke="#171717" stroke-width="1.8" stroke-linecap="round"/>
<path d="M208.226 236.816L205.707 215.597C204.087 213.978 202.323 212.726 200.467 211.783L202.99 241.531C205.318 239.946 207.09 238.487 208.226 236.816Z" fill="#FCD99C"/>
<path d="M143.609 207.113C135.633 199.802 130.142 160.859 130.842 149.638C130.95 147.925 130.359 122.611 131.673 123.882C132.07 124.266 132.723 142.276 138.32 152.131C144.907 163.729 149.51 172.361 158.433 172.984C168.404 172.984 177.253 166.076 182.515 162.475C185.838 162.475 188.857 167.314 199.658 162.475C202.151 166.076 213.287 169.75 217.442 169.75C227.412 169.75 238.82 171.01 239.651 152.731C239.802 149.408 242.48 194.651 233.341 207.113C225.032 216.253 205.092 227.885 191.798 227.885C168.535 227.885 153.579 216.253 143.609 207.113Z" fill="#171717" stroke="#171717" stroke-width="1.79778" stroke-linecap="round"/>
<path d="M194.667 192.67C198.797 192.67 208.71 198.767 208.71 181.21C199.183 181.21 199.685 175.136 193.634 175.4C188.383 175.63 182.578 183.921 172.983 184.26C172.983 202.551 190.537 192.67 194.667 192.67Z" fill="#FDE8C3" stroke="#171717" stroke-width="1.79778" stroke-linecap="round"/>
<path d="M262.305 267.75C262.39 269.793 267.149 279.745 268.907 285.13L291.861 337.804C293.163 342.785 293.719 353.354 285.52 355.776C277.321 358.198 270.091 353.854 267.508 347.053L252.54 285.294C250.148 278.997 246.88 269.977 246.651 269.372C246.363 268.617 240.213 264.9 238.248 261.323C236.797 258.682 238.069 253.609 238.069 253.609C233.761 254.726 231.168 256.599 229.757 256.766C227.109 257.08 223.032 254.997 225.768 253.093L230.484 249.573L236.06 248.319L243.904 246.205C247.682 244.77 240.562 246.404 234.795 246.206C232.317 246.12 226.815 248.098 224.515 247.516C216.862 245.581 220.178 243.687 222.793 242.982C223.635 243.361 227.981 241.004 232.048 240.448L230.426 236.176C228.129 236.336 225.087 236.538 221.114 236.702C210.898 237.124 216.082 232.561 215.795 231.805C215.626 231.358 222.436 230.981 228.871 230.607C227.967 227.048 228.966 225.28 229.579 224.841C233.581 222.629 234.914 227.505 235.081 230.22C236.923 230.088 238.416 229.954 239.25 229.814C240.066 229.678 241.348 229.852 242.866 230.228L237.891 221.684L227.465 216.997C216.851 212.728 219.235 209.747 221.754 208.79C221.754 208.79 235.349 213.171 242.487 217.344C242.791 217.522 243.084 217.699 243.363 217.876C244.789 219.353 246.862 222.027 248.992 224.936C250.202 226.588 251.431 228.316 252.57 229.943C256.583 234.472 257.731 237.494 257.731 237.494C257.837 240.048 260.326 249.203 260.319 250.346C260.29 254.681 262.2 265.196 262.305 267.75Z" fill="#FDE8C3"/>
<path d="M257.731 237.494C257.837 240.048 260.326 249.203 260.319 250.346C260.29 254.681 262.2 265.196 262.305 267.75C262.39 269.793 267.149 279.745 268.907 285.13L291.861 337.804C293.163 342.785 293.719 353.354 285.52 355.776C277.321 358.198 270.091 353.854 267.508 347.053L252.54 285.294C250.148 278.997 246.88 269.977 246.651 269.372C246.363 268.617 240.213 264.9 238.248 261.323C236.797 258.682 238.069 253.609 238.069 253.609M257.731 237.494C255.902 234.225 248.913 231.727 242.866 230.228M257.731 237.494C257.731 237.494 256.583 234.472 252.57 229.943C251.431 228.316 250.202 226.588 248.992 224.936C246.862 222.027 244.789 219.353 243.363 217.876C243.084 217.699 242.791 217.522 242.487 217.344C235.349 213.171 221.754 208.79 221.754 208.79C219.235 209.747 216.851 212.728 227.465 216.997L237.891 221.684L242.866 230.228M243.45 238.595C241.46 237.91 237.272 236.445 236.438 236.07C235.801 235.784 234.035 235.926 230.426 236.176M243.45 238.595L247.876 238.451M243.45 238.595C241.948 238.873 241.426 238.939 239.385 239.275C237.442 239.594 233.991 240.183 232.048 240.448M242.866 230.228C241.348 229.852 240.066 229.678 239.25 229.814C238.416 229.954 236.923 230.088 235.081 230.22M235.081 230.22C234.914 227.505 233.581 222.629 229.579 224.841C228.966 225.28 227.967 227.048 228.871 230.607M235.081 230.22C233.255 230.35 231.085 230.479 228.871 230.607M228.871 230.607C222.436 230.981 215.626 231.358 215.795 231.805C216.082 232.561 210.898 237.124 221.114 236.702C225.087 236.538 228.129 236.336 230.426 236.176M230.426 236.176L232.048 240.448M232.048 240.448C227.981 241.004 223.635 243.361 222.793 242.982C220.178 243.687 216.862 245.581 224.515 247.516C226.815 248.098 232.317 246.12 234.795 246.206C240.562 246.404 247.682 244.77 243.904 246.205L236.06 248.319L230.484 249.573L225.768 253.093C223.032 254.997 227.109 257.08 229.757 256.766C231.168 256.599 233.761 254.726 238.069 253.609M238.069 253.609C241.843 252.631 246.487 253.006 247.998 252.432" stroke="#171717" stroke-width="2" stroke-linecap="round"/>
<path d="M187.561 185.549C189.63 184.708 194.741 183.454 198.639 185.162" stroke="#171717" stroke-width="1.79778" stroke-linecap="round"/>
<path d="M183.607 82.5872C158.412 91.7265 130.698 132.841 129.018 132.01C128.738 123.836 119.78 111.239 121.46 100.438C123.929 91.8882 136.09 79.0506 144.135 71.529V68.8655C144.135 68.0346 150.014 63.8804 151.694 63.0495C153.037 62.3849 155.053 64.7112 155.053 64.7112C155.053 64.7112 176.102 58.9413 189.486 60.557C201.791 62.0426 207.123 69.6963 207.123 69.6963C224.297 61.9573 248.468 54.1712 262.551 60.557C282.707 69.6963 266.283 95.9836 262.551 100.438C257.761 106.156 253.062 112.695 239.842 120.688C239.842 120.688 236.544 97.0865 222.239 87.5723C209.164 78.8751 199.049 79.4859 183.607 82.5872Z" fill="#F0EDE1"/>
<path d="M183.607 82.5872C158.412 91.7265 130.698 132.841 129.018 132.01C128.738 123.836 119.78 111.239 121.46 100.438C123.929 91.8882 136.09 79.0506 144.135 71.529M183.607 82.5872C199.049 79.4859 209.164 78.8751 222.239 87.5723C236.544 97.0865 239.842 120.688 239.842 120.688C253.063 112.695 257.761 106.156 262.551 100.438C266.283 95.9836 282.707 69.6963 262.551 60.557C248.468 54.1712 224.297 61.9573 207.123 69.6963M183.607 82.5872C183.607 82.5872 192.526 76.2741 207.123 69.6963M155.053 64.7112C155.053 64.7112 176.102 58.9413 189.486 60.557C201.791 62.0426 207.123 69.6963 207.123 69.6963M155.053 64.7112C155.053 64.7112 153.037 62.3849 151.694 63.0495C150.014 63.8804 144.135 68.0346 144.135 68.8655C144.135 69.5302 144.135 70.9181 144.135 71.529M155.053 64.7112C155.053 64.7112 147.036 68.8173 144.135 71.529" stroke="#171717" stroke-width="1.79778" stroke-linecap="round"/>
<path d="M182.007 114.721C183.43 113.756 181.362 111.092 179.563 107.294C176.864 105.231 155.525 119.705 156.986 123.387C165.559 122.244 180.584 115.686 182.007 114.721Z" fill="#171717" stroke="#171717" stroke-width="1.79778"/>
<path d="M204.679 69.1768C204.679 69.1768 199.216 62.9614 189.227 62.0264C193.812 63.915 200.984 68.5197 200.984 70.9284C202.622 70.1181 202.855 70.0077 204.679 69.1768Z" fill="#DDD6BB"/>
<path d="M238.133 119.526C237.938 124.145 237.802 129.164 237.802 129.164L235.31 137.624L235.369 138.962C235.369 138.962 236.433 141.168 236.623 144.085C237.483 148.313 238.271 151.394 238.271 151.394C238.271 151.394 237.949 156.409 236.982 159.204C235.943 161.533 236.229 161.927 233.435 164.649C234.295 158.165 234.098 156.817 234.098 149.706V143.04C234.098 143.04 232.679 139.124 232.481 136.501C232.195 132.713 234.098 126.909 234.098 126.909C234.628 124.524 236.769 113.539 235.564 110.371C235.523 110.271 235.5 110.218 235.5 110.218C235.522 110.267 235.543 110.318 235.564 110.371C235.923 111.245 237.697 115.703 238.133 119.526Z" fill="#FCD99C"/>
</svg>
