<svg width="388" height="388" viewBox="0 0 388 388" fill="none" xmlns="http://www.w3.org/2000/svg">
<rect width="388" height="388" fill="white"/>
<path d="M92.2928 243.159C100.047 238.451 118.381 231.859 129.681 243.159L132.174 263.93C132.174 263.93 139.651 263.93 140.482 267.661C156.822 270.154 190.167 276.967 192.826 284.278C195.484 291.59 201.134 307.819 203.627 315.02C113.895 380.657 61.5514 342.438 24.1631 315.02C26.1018 307.265 30.9761 290.26 34.9642 284.278C38.9523 278.296 68.1982 270.708 81.4918 267.661C83.9843 263.93 88.9694 263.93 88.9694 263.93L92.2928 243.159Z" fill="white"/>
<path d="M92.2924 243.159C100.047 238.451 118.381 231.859 129.681 243.159L132.173 263.93C132.173 263.93 139.651 263.93 140.482 267.661C119.877 294.587 92.2924 278.744 81.4914 267.661C83.9839 263.93 88.969 263.93 88.969 263.93L92.2924 243.159Z" fill="white"/>
<path d="M132.173 263.93L129.681 243.159C118.381 231.859 100.047 238.451 92.2924 243.159L88.969 263.93M132.173 263.93C127.465 270.854 112.233 280.547 88.969 263.93M132.173 263.93C132.173 263.93 139.651 263.93 140.482 267.661M88.969 263.93C88.969 263.93 83.9839 263.93 81.4914 267.661M81.4914 267.661C92.2924 278.744 119.877 294.587 140.482 267.661M81.4914 267.661C68.1978 270.708 38.9519 278.296 34.9638 284.278C30.9757 290.26 19.4547 335.787 17.5161 343.542C15.8544 349.081 13.5282 357.534 17.5163 366.175M140.482 267.661C156.822 270.154 190.166 276.967 192.825 284.278C195.484 291.59 201.134 307.819 203.626 315.02L209.358 336.267" stroke="#171717" stroke-width="1.79778" stroke-linecap="round"/>
<path d="M129.628 243.889C118.329 232.589 99.9947 239.181 92.2401 243.889L88.9167 264.66C112.18 281.277 127.413 271.584 132.121 264.66L129.628 243.889Z" fill="#FDE8C3" stroke="#171717" stroke-width="1.8" stroke-linecap="round"/>
<path d="M130.626 264.3L128.107 243.081C126.487 241.461 124.723 240.209 122.867 239.267L125.391 269.015C127.718 267.43 129.49 265.97 130.626 264.3Z" fill="#FCD99C"/>
<path d="M57.7639 184.45C40.7891 177.175 46.4472 158.584 56.0196 162.762V144.692C56.0196 144.692 83.3912 126.347 108.317 117.208C123.593 114.107 138.222 113.361 151.158 122.058C165.31 131.572 165.692 145.677 165.692 145.677L165.272 157.775C171.924 154.454 173.356 165.05 164.203 173.907L165.692 180.572V197.189L148.244 215.468L113.348 204.667L85.0994 215.468L58.5122 191.373L57.7639 184.45Z" fill="#FDE8C3"/>
<path d="M56.0196 162.762L55.6601 163.585L56.9185 164.135V162.762H56.0196ZM57.7639 184.45L58.6576 184.354L58.6011 183.831L58.118 183.624L57.7639 184.45ZM164.203 173.907L163.578 173.261L163.216 173.611L163.326 174.103L164.203 173.907ZM56.0196 144.692L55.5192 143.945C55.2702 144.112 55.1208 144.392 55.1208 144.692H56.0196ZM108.317 117.208L108.138 116.327L108.071 116.341L108.007 116.364L108.317 117.208ZM165.692 145.677L166.59 145.708L166.591 145.68L166.59 145.652L165.692 145.677ZM58.5122 191.373L57.6185 191.47L57.6552 191.81L57.9086 192.039L58.5122 191.373ZM85.0994 215.468L84.4957 216.134L84.9048 216.505L85.4204 216.308L85.0994 215.468ZM113.348 204.667L113.614 203.808L113.317 203.716L113.027 203.827L113.348 204.667ZM148.244 215.468L147.978 216.327L148.51 216.491L148.894 216.089L148.244 215.468ZM165.692 197.189L166.342 197.81L166.591 197.549V197.189H165.692ZM165.692 180.572H166.591V180.473L166.569 180.376L165.692 180.572ZM151.158 122.058L151.66 121.312V121.312L151.158 122.058ZM161.881 167.139C161.754 167.619 162.041 168.111 162.521 168.237C163.002 168.363 163.493 168.076 163.619 167.596L162.75 167.368L161.881 167.139ZM56.0196 162.762L56.3792 161.938C53.6955 160.766 51.1931 161.176 49.3106 162.659C47.4664 164.111 46.3047 166.519 46.0419 169.224C45.5107 174.691 48.6032 181.502 57.4098 185.276L57.7639 184.45L58.118 183.624C49.9498 180.123 47.384 174.001 47.8312 169.398C48.0576 167.068 49.0444 165.157 50.4229 164.071C51.7631 163.015 53.5576 162.668 55.6601 163.585L56.0196 162.762ZM165.272 157.775L165.674 158.579C167.168 157.833 168.119 157.981 168.675 158.38C169.273 158.809 169.745 159.758 169.765 161.287C169.807 164.315 168.029 168.954 163.578 173.261L164.203 173.907L164.828 174.553C169.53 170.003 171.613 164.916 171.563 161.262C171.539 159.45 170.977 157.819 169.722 156.919C168.425 155.988 166.702 156.057 164.871 156.971L165.272 157.775ZM56.0196 162.762H56.9185V144.692H56.0196H55.1208V162.762H56.0196ZM56.0196 144.692C56.5201 145.438 56.5201 145.438 56.5203 145.438C56.5204 145.438 56.5207 145.438 56.5211 145.438C56.5218 145.437 56.5229 145.436 56.5245 145.435C56.5277 145.433 56.5325 145.43 56.5389 145.426C56.5518 145.417 56.5712 145.404 56.5971 145.387C56.6489 145.352 56.7264 145.301 56.8289 145.233C57.0339 145.098 57.3384 144.897 57.7352 144.639C58.5288 144.121 59.6916 143.372 61.1652 142.443C64.1126 140.586 68.3024 138.013 73.2693 135.156C83.2106 129.438 96.2338 122.596 108.626 118.052L108.317 117.208L108.007 116.364C95.4741 120.96 82.3488 127.86 72.3729 133.598C67.3812 136.469 63.1703 139.054 60.2067 140.922C58.7247 141.856 57.5543 142.611 56.7537 143.132C56.3534 143.393 56.0455 143.596 55.8373 143.733C55.7332 143.802 55.6541 143.855 55.6008 143.89C55.5741 143.908 55.5539 143.922 55.5403 143.931C55.5335 143.935 55.5283 143.939 55.5248 143.941C55.523 143.942 55.5217 143.943 55.5207 143.944C55.5203 143.944 55.5199 143.944 55.5197 143.944C55.5194 143.945 55.5192 143.945 56.0196 144.692ZM165.692 145.677L164.793 145.646L164.374 157.744L165.272 157.775L166.171 157.806L166.59 145.708L165.692 145.677ZM57.7639 184.45L56.8702 184.547L57.6185 191.47L58.5122 191.373L59.4059 191.277L58.6576 184.354L57.7639 184.45ZM58.5122 191.373L57.9086 192.039L84.4957 216.134L85.0994 215.468L85.703 214.802L59.1158 190.707L58.5122 191.373ZM85.0994 215.468L85.4204 216.308L113.669 205.507L113.348 204.667L113.027 203.827L84.7783 214.628L85.0994 215.468ZM113.348 204.667L113.082 205.526L147.978 216.327L148.244 215.468L148.51 214.609L113.614 203.808L113.348 204.667ZM148.244 215.468L148.894 216.089L166.342 197.81L165.692 197.189L165.042 196.569L147.594 214.847L148.244 215.468ZM165.692 197.189H166.591V180.572H165.692H164.793V197.189H165.692ZM165.692 180.572L166.569 180.376L165.081 173.711L164.203 173.907L163.326 174.103L164.814 180.768L165.692 180.572ZM108.317 117.208L108.496 118.089C123.718 114.999 138.034 114.318 150.657 122.804L151.158 122.058L151.66 121.312C138.41 112.404 123.468 113.215 108.138 116.327L108.317 117.208ZM151.158 122.058L150.657 122.804C157.555 127.442 161.085 133.187 162.896 137.766C163.802 140.058 164.277 142.058 164.525 143.479C164.649 144.189 164.717 144.754 164.753 145.136C164.771 145.328 164.781 145.473 164.787 145.569C164.789 145.617 164.791 145.652 164.792 145.674C164.793 145.685 164.793 145.693 164.793 145.698C164.793 145.7 164.793 145.701 164.793 145.702C164.793 145.702 164.793 145.702 164.793 145.702C164.793 145.702 164.793 145.702 164.793 145.702C164.793 145.701 164.793 145.701 165.692 145.677C166.59 145.652 166.59 145.652 166.59 145.651C166.59 145.651 166.59 145.65 166.59 145.65C166.59 145.649 166.59 145.648 166.59 145.646C166.59 145.643 166.59 145.64 166.59 145.635C166.589 145.626 166.589 145.613 166.588 145.597C166.587 145.566 166.585 145.521 166.581 145.463C166.574 145.347 166.563 145.181 166.543 144.968C166.502 144.542 166.429 143.93 166.296 143.17C166.031 141.649 165.526 139.528 164.568 137.105C162.649 132.253 158.913 126.189 151.66 121.312L151.158 122.058ZM165.272 157.775L164.403 157.547L161.881 167.139L162.75 167.368L163.619 167.596L166.142 158.004L165.272 157.775Z" fill="#171717"/>
<path d="M108.159 116.908C82.8069 126.087 54.9667 144.511 54.9667 144.511L67.6552 91.9425C67.8179 91.2681 68.0505 90.6124 68.349 89.9861L105.636 11.7611C106.688 9.5523 109.8 9.46509 110.975 11.6114L153.71 89.6821C154.162 90.5086 154.495 91.3949 154.7 92.3147L164.893 138.191C166.433 142.433 166.517 145.5 166.517 145.5L164.893 138.191C163.123 133.316 159.431 126.888 151.734 121.779C138.577 113.044 123.697 113.793 108.159 116.908Z" fill="white"/>
<path d="M54.9667 144.511L54.0929 144.3C54.0062 144.659 54.1481 145.035 54.4506 145.247C54.7531 145.459 55.1546 145.464 55.4627 145.26L54.9667 144.511ZM108.159 116.908L107.983 116.026L107.917 116.039L107.853 116.062L108.159 116.908ZM151.734 121.779L151.237 122.528V122.528L151.734 121.779ZM166.517 145.5L165.639 145.695C165.74 146.147 166.167 146.449 166.627 146.392C167.087 146.335 167.428 145.939 167.415 145.475L166.517 145.5ZM154.7 92.3147L153.822 92.5097V92.5097L154.7 92.3147ZM153.71 89.6821L154.498 89.2505V89.2505L153.71 89.6821ZM110.975 11.6114L110.187 12.0431V12.0431L110.975 11.6114ZM105.636 11.7611L104.824 11.3743L105.636 11.7611ZM68.349 89.9861L69.1605 90.3729H69.1605L68.349 89.9861ZM67.6552 91.9425L66.7814 91.7316V91.7316L67.6552 91.9425ZM54.9667 144.511C55.4627 145.26 55.4628 145.26 55.4629 145.26C55.4631 145.26 55.4634 145.26 55.4637 145.26C55.4645 145.259 55.4657 145.258 55.4673 145.257C55.4705 145.255 55.4754 145.252 55.4819 145.248C55.495 145.239 55.5148 145.226 55.5411 145.209C55.5938 145.174 55.6727 145.122 55.777 145.054C55.9855 144.918 56.2952 144.717 56.6989 144.457C57.5062 143.938 58.6889 143.184 60.1878 142.252C63.1858 140.386 67.4476 137.803 72.4998 134.933C82.6116 129.189 95.8589 122.317 108.465 117.753L108.159 116.908L107.853 116.062C95.1072 120.677 81.7583 127.606 71.6119 133.37C66.535 136.253 62.2522 138.85 59.2379 140.725C57.7307 141.663 56.5403 142.421 55.726 142.945C55.3189 143.207 55.0058 143.411 54.7941 143.549C54.6882 143.618 54.6077 143.671 54.5535 143.706C54.5264 143.724 54.5059 143.738 54.492 143.747C54.4851 143.751 54.4798 143.755 54.4762 143.757C54.4745 143.758 54.4731 143.759 54.4722 143.76C54.4717 143.76 54.4713 143.761 54.4711 143.761C54.4708 143.761 54.4706 143.761 54.9667 144.511ZM108.159 116.908L108.336 117.789C123.821 114.685 138.391 113.999 151.237 122.528L151.734 121.779L152.232 121.03C138.762 112.088 123.573 112.901 107.983 116.026L108.159 116.908ZM151.734 121.779L151.237 122.528C158.743 127.51 162.33 133.765 164.048 138.498L164.893 138.191L165.738 137.885C163.916 132.867 160.119 126.266 152.232 121.03L151.734 121.779ZM164.893 138.191L164.048 138.498C164.796 140.559 165.189 142.332 165.395 143.583C165.498 144.208 165.554 144.702 165.584 145.036C165.599 145.202 165.608 145.329 165.613 145.412C165.615 145.453 165.616 145.484 165.617 145.503C165.618 145.512 165.618 145.519 165.618 145.522C165.618 145.524 165.618 145.525 165.618 145.526C165.618 145.526 165.618 145.526 165.618 145.526C165.618 145.526 165.618 145.526 165.618 145.525C165.618 145.525 165.618 145.525 165.618 145.525C165.618 145.525 165.618 145.525 166.517 145.5C167.415 145.475 167.415 145.475 167.415 145.475C167.415 145.475 167.415 145.475 167.415 145.475C167.415 145.474 167.415 145.474 167.415 145.473C167.415 145.472 167.415 145.471 167.415 145.47C167.415 145.467 167.415 145.464 167.415 145.46C167.414 145.452 167.414 145.441 167.413 145.427C167.412 145.399 167.41 145.359 167.407 145.308C167.402 145.207 167.392 145.061 167.375 144.874C167.341 144.5 167.28 143.962 167.169 143.291C166.948 141.948 166.529 140.066 165.738 137.885L164.893 138.191ZM166.517 145.5L167.394 145.305L165.77 137.996L164.893 138.191L164.015 138.386L165.639 145.695L166.517 145.5ZM164.893 138.191L165.77 137.996L155.577 92.1198L154.7 92.3147L153.822 92.5097L164.015 138.386L164.893 138.191ZM153.71 89.6821L154.498 89.2505L111.764 11.1798L110.975 11.6114L110.187 12.0431L152.921 90.1137L153.71 89.6821ZM105.636 11.7611L104.824 11.3743L67.5376 89.5993L68.349 89.9861L69.1605 90.3729L106.447 12.1478L105.636 11.7611ZM67.6552 91.9425L66.7814 91.7316L54.0929 144.3L54.9667 144.511L55.8405 144.722L68.529 92.1535L67.6552 91.9425ZM68.349 89.9861L67.5376 89.5993C67.2122 90.2819 66.9588 90.9966 66.7814 91.7316L67.6552 91.9425L68.529 92.1535C68.6771 91.5396 68.8888 90.9429 69.1605 90.3729L68.349 89.9861ZM110.975 11.6114L111.764 11.1798C110.237 8.39037 106.193 8.50371 104.824 11.3743L105.636 11.7611L106.447 12.1478C107.184 10.6009 109.364 10.5398 110.187 12.0431L110.975 11.6114ZM154.7 92.3147L155.577 92.1198C155.355 91.1173 154.991 90.1513 154.498 89.2505L153.71 89.6821L152.921 90.1137C153.333 90.866 153.636 91.6726 153.822 92.5097L154.7 92.3147Z" fill="#171717"/>
<path d="M113.609 154.879C115.311 154.638 114.627 151.336 114.683 147.134C113.167 144.094 87.6365 147.699 87.3275 151.648C95.5288 154.395 111.907 155.119 113.609 154.879Z" fill="#171717" stroke="#171717" stroke-width="1.79778"/>
<path d="M106.784 163.11C103.151 163.11 103.151 174.742 106.784 174.742C112.696 174.742 111.282 163.11 106.784 163.11Z" fill="#171717" stroke="#171717" stroke-width="1.79778"/>
<path d="M140.236 163.13C142.961 163.13 142.961 173.1 140.236 173.1C135.802 173.1 136.862 163.13 140.236 163.13Z" fill="#171717" stroke="#171717" stroke-width="1.79778"/>
<path d="M69.2425 235.405C61.2663 228.093 55.775 189.15 56.4753 177.93C56.5834 176.217 55.1613 149.887 56.4752 151.158C56.8723 151.542 58.3562 170.567 63.9529 180.422C70.5401 192.021 80.7857 202.233 89.7093 202.855C99.6795 202.855 110.97 193.993 116.232 190.392C119.555 190.392 122.574 195.231 133.375 190.392C135.868 193.993 147.038 198.701 151.192 198.701C161.162 198.701 164.453 199.302 165.284 181.023C165.435 177.7 168.114 222.942 158.974 235.405C150.666 244.544 130.725 256.176 117.432 256.176C94.1679 256.176 79.2127 244.544 69.2425 235.405Z" fill="#171717" stroke="#171717" stroke-width="1.79778" stroke-linecap="round"/>
<path d="M114.783 188.711C118.392 191.219 127.431 194.73 134.724 188.711C136.15 187.533 131.4 158.82 132.231 153.835" stroke="#171717" stroke-width="1.79778" stroke-linecap="round"/>
<path d="M121.917 220.962C126.047 220.962 135.96 227.059 135.96 209.502C126.433 209.502 126.935 203.427 120.884 203.692C115.633 203.922 109.828 212.212 100.233 212.551C100.233 230.843 117.787 220.962 121.917 220.962Z" fill="#FDE8C3" stroke="#171717" stroke-width="1.79778" stroke-linecap="round"/>
<path d="M114.81 215.487C116.878 214.646 121.99 213.391 125.888 215.099" stroke="#171717" stroke-width="1.79778" stroke-linecap="round"/>
<path d="M115 98.6166V78.2466H121.955C127.542 78.2466 132.518 81.4476 132.518 88.4316C132.518 95.4156 127.542 98.6166 121.955 98.6166H115ZM121.46 94.659C124.748 94.659 127.891 93.1458 127.891 88.4316C127.891 83.7174 124.748 82.1751 121.46 82.1751H119.51V94.659H121.46Z" fill="#171717"/>
<path d="M294.75 357.03L294.233 362.942M294.233 362.942L335.211 352.182L334.331 348.216M294.233 362.942L258.687 360.517M294.75 352.182L333.452 344.249L334.331 348.216M294.75 352.182L260.446 349.097M294.75 352.182L338.729 342.486C335.944 341.604 330.989 337.814 333.452 329.705M294.75 352.182C291.231 338.96 294.75 338.96 296.949 331.468M289.912 357.03L258.687 355.267M300.027 355.267L334.331 348.216M296.949 331.468C308.53 328.823 332.396 323.975 335.211 325.738M296.949 331.468L264.844 329.705M292.991 329.705C291.671 324.857 289.824 315.425 292.991 316.483M294.75 327.942L328.174 322.232M333.452 321.331L328.174 322.232M328.174 322.232V316.483L338.729 312.516M338.729 312.516L304.865 319.568L264.844 306.786C263.964 304.583 261.853 300.175 260.446 300.175M338.729 312.516L358.96 309.871M338.729 312.516C337.186 311.522 334.289 310.25 330.813 308.855M260.446 300.175C258.687 300.175 254.289 301.497 254.289 304.142C254.289 306.257 232.885 310.606 222.184 312.516M260.446 300.175L268.802 298.5M273.2 304.142L300.027 297.09M338.729 346.453L376.552 334.608M380.95 333.23L376.552 334.608M376.552 334.608C374.646 332.399 372.857 326.832 380.95 322.232L335.211 333.23M382.709 311.194L335.211 321.331M382.709 311.194C379.777 312.369 374.793 316.042 378.311 321.331M382.709 311.194L358.96 309.871M358.96 309.871L380.95 306.786C374.258 304.142 376.845 293.27 378.311 290.479M378.311 290.479L333.452 295.768M378.311 290.479C375.965 289.451 368.967 282.142 378.311 273.29M333.452 295.768C330.637 295.063 329.933 305.374 330.813 308.855M333.452 295.768C329.23 293.445 330.813 280.525 336.97 279.02M333.452 295.768L271.441 282.987C265.108 276.993 269.975 271.674 273.2 269.764L312.342 275.053L336.97 279.02M330.813 308.855C320.423 304.683 304.865 299.402 304.865 297.09C304.865 294.622 301.64 292.83 300.027 292.242L268.802 298.5M336.97 279.02L378.311 273.29M378.311 273.29L352.433 267.171M273.2 286.953C270.268 288.04 265.284 291.872 268.802 298.5M323.776 269.764L361.159 266.239C357.347 266.239 351.044 263.418 356.321 252.135M323.776 269.764C318.147 264.123 323.19 255.661 326.415 252.135L358.96 248.609M323.776 269.764L296.949 266.239M345.326 243.761L334.331 238.472M329.494 240.676L323.776 246.846M320.698 246.846L317.179 248.609L294.75 266.239L238.017 257.892M322.457 248.609C318.279 250.96 309.967 256.895 310.143 261.831L302.226 263.594M323.776 240.676L292.991 261.831L238.456 253.898M329.494 230.098L281.667 226.367C275.2 226.367 269.542 225.559 268.802 231.861L239.775 250.372L291.671 259.187L303.986 249.491L323.776 237.15C323.776 234.329 327.588 231.274 329.494 230.098ZM329.494 230.098C330.813 230.116 333.804 231.11 335.211 234.946L368.635 248.609C366.876 249.784 362.918 252.135 361.159 252.135M278.477 234.946L312.342 237.15M243.734 259.187L221.304 304.142M257.367 263.594L236.257 305.464M267.483 266.239L248.571 299.294M240.215 266.239L228.781 259.187M228.781 259.187L237.209 257.892M228.781 259.187L208.55 301.497" stroke="#171717" stroke-width="2" stroke-linecap="round" stroke-linejoin="round"/>
<path d="M164.258 146.323C164.063 150.943 163.819 157.569 163.819 157.569L161.35 166.839L161.076 168.211C161.076 168.211 162.438 170.261 162.628 173.179C163.487 177.406 163.687 177.409 164.02 180.179C164.575 184.799 163.47 189.059 162.502 191.853C161.464 194.182 162.28 194.013 159.485 196.735C160.345 190.251 159.731 185.917 159.731 178.805V172.14C159.731 172.14 158.312 168.224 158.114 165.601C157.828 161.813 159.731 156.008 159.731 156.008C160.251 153.67 163.082 141.064 162.082 137.519C162.001 137.289 161.954 137.163 161.954 137.163C162.002 137.268 162.044 137.388 162.082 137.519C162.504 138.722 163.85 142.748 164.258 146.323Z" fill="#FCD99C"/>
<path d="M139.356 151.885C137.995 151.486 138.815 148.706 139.107 145.064C140.581 142.604 161.005 148.583 160.939 152.034C154.064 153.491 140.718 152.283 139.356 151.885Z" fill="#171717" stroke="#171717" stroke-width="1.79778"/>
</svg>
