<svg width="388" height="388" viewBox="0 0 388 388" fill="none" xmlns="http://www.w3.org/2000/svg">
<rect width="388" height="388" fill="white"/>
<path d="M169.893 215.585C177.647 210.877 195.982 204.286 207.281 215.585L209.774 236.357C209.774 236.357 217.251 236.357 218.082 240.088C234.422 242.58 267.767 249.393 270.426 256.705C273.084 264.016 278.734 280.245 281.227 287.446C191.495 353.083 139.151 314.864 101.763 287.446C103.702 279.691 108.576 262.687 112.564 256.705C116.552 250.723 145.798 243.134 159.092 240.088C161.584 236.357 166.569 236.357 166.569 236.357L169.893 215.585Z" fill="white"/>
<path d="M169.893 215.585C177.647 210.877 195.982 204.286 207.281 215.585L209.774 236.357C209.774 236.357 217.251 236.357 218.082 240.088C197.477 267.013 169.893 251.171 159.092 240.088C161.584 236.357 166.569 236.357 166.569 236.357L169.893 215.585Z" fill="white"/>
<path d="M209.774 236.357L207.281 215.585C195.982 204.286 177.647 210.877 169.893 215.585L166.569 236.357M209.774 236.357C205.065 243.28 189.833 252.974 166.569 236.357M209.774 236.357C209.774 236.357 217.251 236.357 218.082 240.088M166.569 236.357C166.569 236.357 161.584 236.357 159.092 240.088M159.092 240.088C169.893 251.171 197.477 267.013 218.082 240.088M159.092 240.088C145.798 243.134 116.552 250.723 112.564 256.705C108.576 262.687 95.3933 323.862 93.4547 331.617C91.793 337.156 91.1282 344.578 95.1163 353.219M218.082 240.088C234.422 242.58 267.767 249.393 270.426 256.705C273.084 264.016 278.734 280.245 281.227 287.446L291 331.617C293.156 336.415 296.173 347.453 291 353.219" stroke="#171717" stroke-width="1.79778" stroke-linecap="round"/>
<path d="M131.758 156.726C114.784 149.451 120.442 130.86 130.014 135.038L130.014 112.968C130.014 112.968 130.853 112.168 132.507 110.826C133.713 109.847 135.352 108.58 137.417 107.123C143.749 102.654 154.075 96.4062 168.134 91.2514C183.41 88.1501 189.15 87.1209 207.742 91.2514C218.446 93.6296 226.17 99.7304 231.339 105.501C237.1 111.932 239.686 117.953 239.686 117.953L239.267 130.051C245.918 126.73 247.35 137.326 238.198 146.183L239.686 152.849V169.466L222.238 187.744L187.343 176.943L159.094 187.744L132.507 163.65L131.758 156.726Z" fill="#FDE8C3"/>
<path d="M239.267 130.051C245.918 126.73 247.35 137.326 238.198 146.183L239.686 152.849V169.466L222.238 187.744L187.343 176.943L159.094 187.744L132.507 163.65L131.758 156.726C114.784 149.451 120.442 130.86 130.014 135.038L130.014 112.968C130.014 112.968 130.853 112.168 132.507 110.826C133.713 109.847 135.352 108.58 137.417 107.123C143.749 102.654 154.075 96.4062 168.134 91.2514C183.41 88.1501 189.15 87.1209 207.742 91.2514C218.446 93.6296 226.17 99.7304 231.339 105.501C237.1 111.932 239.686 117.953 239.686 117.953L239.267 130.051ZM239.267 130.051L236.745 139.644" stroke="#171717" stroke-width="1.79778" stroke-linecap="round"/>
<path d="M207.742 91.2512C189.15 87.1206 183.41 88.1499 168.134 91.2512C154.075 96.4059 143.749 102.654 137.417 107.123C136.069 106.043 133.537 103.399 134.183 101.459C134.699 99.9132 135.871 98.6958 137.072 98.2257C135.57 95.5312 133.213 89.819 135.8 88.5257C137.632 87.6094 139.984 85.8178 142.267 85.2277C143.344 80.6687 146.955 72.5207 152.775 76.4007C153.58 76.9371 154.289 77.4282 154.912 77.8769C155.547 73.8821 158.11 66.2157 163.283 67.509L165.708 68.6407C168.133 65.0301 174.115 58.779 178.642 62.659C180.652 64.3823 182.312 67.445 183.607 70.7424C185.185 67.2396 189.635 60.719 194.808 62.659C197.837 63.795 199.352 65.7253 200.032 67.509C204.758 66.7007 214.532 66.2157 215.825 70.7424V76.4007C218.789 75.5924 224.878 75.269 225.525 80.4424C225.762 82.3364 225.717 83.7104 225.525 84.6912C227.681 85.6308 231.83 88.2582 231.183 91.2512C230.972 92.2304 230.754 92.9117 230.548 93.3757C231.568 94.184 233.447 96.4474 232.8 99.034C232.153 101.621 231.557 104.423 231.339 105.501C226.17 99.7302 218.446 93.6293 207.742 91.2512Z" fill="#FCA5A5"/>
<path d="M139.033 98.2257C138.447 97.9326 137.755 97.9583 137.072 98.2257M137.072 98.2257C135.871 98.6958 134.699 99.9132 134.183 101.459C133.537 103.399 136.069 106.043 137.417 107.123C143.749 102.654 154.075 96.4059 168.134 91.2512C183.41 88.1499 189.15 87.1206 207.742 91.2512C218.446 93.6293 226.17 99.7302 231.339 105.501C231.557 104.423 232.153 101.621 232.8 99.034C233.447 96.4474 231.568 94.184 230.548 93.3757M137.072 98.2257C135.57 95.5312 133.213 89.819 135.8 88.5257C137.632 87.6094 139.984 85.8178 142.267 85.2277M147.117 86.909C145.716 85.0277 144.011 84.7766 142.267 85.2277M142.267 85.2277C143.344 80.6687 146.955 72.5207 152.775 76.4007C153.58 76.9371 154.289 77.4282 154.912 77.8769M159.094 82.059C159.368 81.8268 158.799 80.6742 154.912 77.8769M154.912 77.8769C155.547 73.8821 158.11 66.2157 163.283 67.509L165.708 68.6407M175.408 73.1674L165.708 68.6407M165.708 68.6407C168.133 65.0301 174.115 58.779 178.642 62.659C180.652 64.3823 182.312 67.445 183.607 70.7424M186.725 82.059C186.276 79.3631 185.227 74.869 183.607 70.7424M183.607 70.7424C185.185 67.2396 189.635 60.719 194.808 62.659C197.837 63.795 199.352 65.7253 200.032 67.509M200.467 70.7424C200.578 69.9606 200.514 68.7716 200.032 67.509M200.032 67.509C204.758 66.7007 214.532 66.2157 215.825 70.7424C215.825 71.9017 215.825 74.2251 215.825 76.4007M215.825 78.8257C215.825 78.094 215.825 77.2589 215.825 76.4007M215.825 76.4007C218.789 75.5924 224.878 75.269 225.525 80.4424C225.762 82.3364 225.717 83.7104 225.525 84.6912M223.908 86.909C224.421 86.909 225.193 86.3893 225.525 84.6912M225.525 84.6912C227.681 85.6308 231.83 88.2582 231.183 91.2512C230.972 92.2304 230.754 92.9117 230.548 93.3757M229.567 94.184C229.748 94.3653 230.124 94.3299 230.548 93.3757" stroke="#171717" stroke-width="1.79778" stroke-linecap="round"/>
<path d="M180.256 112.195C181.793 111.427 180.096 108.513 178.814 104.511C176.412 102.109 153.348 113.636 154.309 117.478C162.958 117.478 178.718 112.964 180.256 112.195Z" fill="#171717" stroke="#171717" stroke-width="1.79778"/>
<path d="M202.267 112.81C201.018 112.138 202.397 109.589 203.439 106.087C205.391 103.985 224.13 114.071 223.349 117.433C216.322 117.433 203.517 113.483 202.267 112.81Z" fill="#171717" stroke="#171717" stroke-width="1.79778"/>
<path d="M174.584 135.537C170.951 135.537 170.951 147.169 174.584 147.169C180.497 147.169 179.083 135.537 174.584 135.537Z" fill="#171717" stroke="#171717" stroke-width="1.79778"/>
<path d="M208.037 135.556C210.761 135.556 210.761 145.526 208.037 145.526C203.602 145.526 204.663 135.556 208.037 135.556Z" fill="#171717" stroke="#171717" stroke-width="1.79778"/>
<path d="M181.831 161.137C185.439 163.645 194.479 167.156 201.771 161.137C203.198 159.96 198.448 131.246 199.279 126.261" stroke="#171717" stroke-width="1.79778" stroke-linecap="round"/>
<path d="M207.228 216.406C195.929 205.106 177.595 211.697 169.84 216.406L166.517 237.177C189.78 253.794 205.013 244.101 209.721 237.177L207.228 216.406Z" fill="#FDE8C3" stroke="#171717" stroke-width="1.8" stroke-linecap="round"/>
<path d="M208.226 236.816L205.707 215.597C204.087 213.978 202.323 212.726 200.467 211.783L202.99 241.531C205.318 239.946 207.09 238.487 208.226 236.816Z" fill="#FCD99C"/>
<path d="M201.913 332.676C203.787 333.497 214.818 333.582 220.428 334.364L277.833 336.828C282.882 337.841 292.624 341.976 291.206 350.406C289.788 358.837 282.714 363.431 275.469 362.771L213.4 349.145C206.691 348.534 197.152 347.516 196.508 347.458C195.703 347.384 189.666 351.283 185.589 351.481C182.58 351.627 178.578 348.259 178.578 348.259C177.693 352.621 178.239 355.772 177.771 357.114C176.892 359.631 173.232 362.382 172.721 359.089L171.624 353.307L172.943 347.745L174.482 339.769C174.848 335.744 173.195 342.86 170.489 347.955C169.326 350.146 168.691 355.958 167.159 357.77C162.064 363.799 161.816 359.989 162.329 357.33C163.039 356.739 162.826 351.799 164.11 347.9L159.559 347.485C158.695 349.619 157.544 352.442 155.949 356.085C151.849 365.451 150.021 358.791 149.216 358.718C148.74 358.674 151.387 352.389 153.872 346.441C150.277 345.693 149.126 344.019 149 343.276C148.767 338.709 153.734 339.649 156.246 340.69C156.936 338.976 157.469 337.576 157.71 336.765C157.945 335.972 158.664 334.896 159.667 333.696L149.807 334.421L141.023 341.738C132.532 349.405 130.899 345.955 131.143 343.272C131.143 343.272 141.042 332.974 147.921 328.388C148.215 328.193 148.502 328.008 148.784 327.834C150.737 327.2 154.049 326.509 157.597 325.87C159.613 325.507 161.704 325.161 163.666 324.851C169.495 323.229 172.715 323.522 172.715 323.522C175.057 324.547 184.377 326.323 185.401 326.831C189.284 328.758 199.572 331.651 201.913 332.676Z" fill="#FDE8C3"/>
<path d="M172.715 323.522C175.057 324.547 184.377 326.323 185.401 326.831C189.284 328.758 199.572 331.651 201.913 332.676C203.787 333.497 214.818 333.582 220.428 334.364L277.833 336.828C282.882 337.841 292.624 341.976 291.206 350.406C289.788 358.837 282.714 363.431 275.469 362.771L213.4 349.145C206.691 348.534 197.152 347.516 196.508 347.458C195.703 347.384 189.666 351.283 185.589 351.481C182.58 351.627 178.578 348.259 178.578 348.259M172.715 323.522C168.975 323.733 163.666 328.918 159.667 333.696M172.715 323.522C172.715 323.522 169.495 323.229 163.666 324.851C161.704 325.161 159.613 325.507 157.597 325.87C154.049 326.509 150.737 327.2 148.784 327.834C148.502 328.008 148.215 328.193 147.921 328.388C141.042 332.974 131.143 343.272 131.143 343.272C130.899 345.955 132.532 349.405 141.023 341.738L149.807 334.421L159.667 333.696M167.443 336.84C165.955 338.328 162.802 341.45 162.1 342.035C161.563 342.482 160.917 344.132 159.559 347.485M167.443 336.84L169.255 332.799M167.443 336.84C167.035 338.312 166.865 338.81 166.271 340.792C165.707 342.678 164.723 346.037 164.11 347.9M159.667 333.696C158.664 334.896 157.945 335.972 157.71 336.765C157.469 337.576 156.936 338.976 156.246 340.69M156.246 340.69C153.734 339.649 148.767 338.709 149 343.276C149.126 344.019 150.277 345.693 153.872 346.441M156.246 340.69C155.563 342.388 154.727 344.395 153.872 346.441M153.872 346.441C151.387 352.389 148.74 358.674 149.216 358.718C150.021 358.791 151.849 365.451 155.949 356.085C157.544 352.442 158.695 349.619 159.559 347.485M159.559 347.485L164.11 347.9M164.11 347.9C162.826 351.799 163.039 356.739 162.329 357.33C161.816 359.989 162.064 363.799 167.159 357.77C168.691 355.958 169.326 350.146 170.489 347.955C173.195 342.86 174.848 335.744 174.482 339.769L172.943 347.745L171.624 353.307L172.721 359.089C173.232 362.382 176.892 359.631 177.771 357.114C178.239 355.772 177.693 352.621 178.578 348.259M178.578 348.259C179.353 344.438 181.727 340.429 181.873 338.819" stroke="#171717" stroke-width="2" stroke-linecap="round"/>
<path d="M203.957 364.851C193.95 371.391 185.252 367.838 184.016 366.923C184.016 366.923 98.7158 368.811 101.762 364.355C95.8542 355.216 92.1244 350.556 100.101 343.458C108.077 336.361 168.507 345.865 186.509 349.841C201.359 344.269 212.135 339.752 214.78 340.591C216.611 341.605 229.514 338.003 232.859 337.898C234.997 337.832 242.459 344.029 245.011 346.169C247.052 347.881 249.626 348.954 251.62 351.064C252.306 355.666 246.007 352.853 243.684 352.246C245.354 354.153 247.079 356.046 248.368 357.429C249.905 361.136 255.5 364.497 252.302 366.923C249.19 369.284 244.871 362.15 243.927 361.45C243.172 360.891 239.944 357.266 236.145 354.322C238.552 357.323 240.534 361.228 241.829 364.283C243.034 366.736 244.884 373.514 244.242 374.844C243.537 376.305 241.077 376.155 240.133 375.456C235.727 377.456 233.18 372.011 232.457 369.039L225.848 364.143L218.085 362.78L211.51 363.759L203.957 364.851Z" fill="#FDE8C3"/>
<path d="M203.957 364.851C193.95 371.391 185.252 367.838 184.016 366.923C184.016 366.923 98.7158 368.811 101.762 364.355C95.8542 355.216 92.1244 350.556 100.101 343.458C108.077 336.361 168.507 345.865 186.509 349.841C201.359 344.269 212.135 339.752 214.78 340.591C216.611 341.605 229.514 338.003 232.859 337.898C234.997 337.832 242.459 344.029 245.011 346.169C247.052 347.881 249.626 348.954 251.62 351.064C252.306 355.666 246.007 352.853 243.684 352.246M203.957 364.851C204.147 364.727 205.425 363.318 205.618 363.189M203.957 364.851L211.51 363.759L218.085 362.78L225.848 364.143L232.457 369.039C233.18 372.011 235.727 377.456 240.133 375.456M240.133 375.456L236.898 365.017L229.1 357.779C226.705 356.736 221.232 354.583 218.504 354.317M240.133 375.456C241.077 376.155 243.537 376.305 244.242 374.844C244.884 373.514 243.034 366.736 241.829 364.283C240.534 361.228 238.552 357.323 236.145 354.322M236.145 354.322C235.033 353.459 235.127 353.127 233.296 352.114C231.465 351.1 221.113 350.4 220.357 349.841M236.145 354.322C239.944 357.266 243.172 360.891 243.927 361.45C244.871 362.15 249.19 369.284 252.302 366.923C255.5 364.497 249.905 361.136 248.368 357.429C247.079 356.046 245.354 354.153 243.684 352.246M220.357 344.08C223.889 345.234 233.947 343.277 236.898 344.911C238.729 345.924 240.603 348.732 243.684 352.246" stroke="#171717" stroke-width="1.79778" stroke-linecap="round"/>
<path d="M208.55 77.2095C207.951 78.407 206.831 80.009 205.317 81.1924M198.042 82.0595C200.916 83.4965 203.424 82.6715 205.317 81.1924M205.317 81.1924C206.933 81.212 209.843 82.0595 208.55 85.2928" stroke="#171717" stroke-width="2" stroke-linecap="round"/>
<path d="M166.839 77.2095C167.438 78.407 169.044 80.8761 170.558 82.0595M177.347 82.0595C174.473 83.4965 172.451 83.5386 170.558 82.0595M170.558 82.0595C168.942 82.0791 165.708 85.2928 166.517 87.7178" stroke="#171717" stroke-width="2" stroke-linecap="round"/>
<path d="M177.939 18.2581C179.474 27.3294 179.538 32.7666 181.777 38.0058C182.736 39.2148 184.015 39.2148 184.975 36.7967C186.574 29.9455 187.533 23.9003 187.533 14.6309C187.533 5.3616 176.653 10.6546 177.939 18.2581Z" fill="#171717" stroke="#171717" stroke-width="2" stroke-linecap="round"/>
<path d="M184.407 45.2859C188.367 46.1456 189.271 51.7332 182.922 51.7333C176.982 51.7333 179.457 44.8561 184.407 45.2859Z" fill="#171717" stroke="#171717" stroke-width="2" stroke-linecap="round"/>
<path d="M264.325 232.601L270.605 239.068L275.642 232.601C275.642 232.601 286.958 220.533 293.357 235.276C298.476 247.071 294.542 256.026 291.935 259.029L270.605 277.868C263.496 274.046 248.565 264.927 245.721 259.029C242.166 251.658 240.744 247.562 245.721 235.276C250.698 222.99 264.325 232.601 264.325 232.601Z" fill="white"/>
<path d="M270.605 239.068L269.888 239.765C270.09 239.972 270.371 240.082 270.66 240.066C270.949 240.051 271.217 239.911 271.394 239.682L270.605 239.068ZM264.325 232.601L265.042 231.905L264.977 231.838L264.901 231.784L264.325 232.601ZM245.721 235.276L246.648 235.652L245.721 235.276ZM245.721 259.029L244.821 259.464V259.464L245.721 259.029ZM270.605 277.868L270.422 278.851C270.725 278.907 271.037 278.821 271.267 278.617L270.605 277.868ZM275.642 232.601L274.912 231.917L274.881 231.951L274.853 231.987L275.642 232.601ZM293.357 235.276L292.439 235.674V235.674L293.357 235.276ZM291.935 259.029L292.597 259.779L292.646 259.735L292.69 259.685L291.935 259.029ZM220.902 274.828C220.453 275.149 220.349 275.774 220.67 276.223C220.991 276.673 221.615 276.777 222.065 276.456L221.483 275.642L220.902 274.828ZM240.222 294.292C239.808 294.657 239.768 295.289 240.133 295.703C240.499 296.118 241.131 296.157 241.545 295.792L240.883 295.042L240.222 294.292ZM270.605 239.068L271.323 238.371L265.042 231.905L264.325 232.601L263.608 233.298L269.888 239.765L270.605 239.068ZM264.325 232.601C264.901 231.784 264.901 231.784 264.901 231.783C264.9 231.783 264.9 231.783 264.9 231.783C264.899 231.782 264.898 231.781 264.896 231.781C264.894 231.779 264.891 231.776 264.886 231.774C264.878 231.768 264.867 231.76 264.852 231.75C264.822 231.729 264.78 231.701 264.726 231.664C264.617 231.592 264.46 231.489 264.26 231.364C263.859 231.114 263.285 230.774 262.582 230.405C261.181 229.673 259.234 228.813 257.1 228.354C254.97 227.895 252.574 227.819 250.342 228.752C248.079 229.699 246.122 231.625 244.794 234.901L245.721 235.276L246.648 235.652C247.81 232.785 249.422 231.305 251.113 230.598C252.836 229.878 254.78 229.9 256.679 230.309C258.574 230.717 260.344 231.492 261.654 232.177C262.306 232.518 262.836 232.833 263.2 233.06C263.382 233.174 263.522 233.266 263.616 233.328C263.662 233.359 263.697 233.383 263.72 233.398C263.731 233.406 263.739 233.412 263.744 233.415C263.746 233.417 263.748 233.418 263.749 233.418C263.749 233.419 263.749 233.419 263.749 233.419C263.749 233.419 263.749 233.419 263.749 233.419C263.749 233.419 263.749 233.418 264.325 232.601ZM245.721 235.276L244.794 234.901C242.285 241.095 241.335 245.351 241.523 249.047C241.712 252.749 243.043 255.778 244.821 259.464L245.721 259.029L246.622 258.595C244.845 254.909 243.687 252.204 243.521 248.945C243.354 245.679 244.18 241.743 246.648 235.652L245.721 235.276ZM245.721 259.029L244.821 259.464C245.618 261.116 247.202 262.897 249.135 264.662C251.089 266.445 253.481 268.284 255.989 270.045C261.005 273.568 266.551 276.823 270.132 278.749L270.605 277.868L271.079 276.987C267.55 275.09 262.076 271.875 257.138 268.408C254.669 266.675 252.351 264.889 250.484 263.185C248.595 261.461 247.247 259.891 246.622 258.595L245.721 259.029ZM270.605 239.068L271.394 239.682L276.431 233.216L275.642 232.601L274.853 231.987L269.816 238.453L270.605 239.068ZM275.642 232.601C276.371 233.285 276.371 233.286 276.371 233.286C276.371 233.286 276.37 233.286 276.37 233.286C276.37 233.286 276.371 233.286 276.371 233.286C276.371 233.285 276.373 233.284 276.374 233.282C276.378 233.278 276.385 233.271 276.394 233.262C276.412 233.243 276.44 233.214 276.479 233.175C276.556 233.098 276.672 232.984 276.824 232.842C277.127 232.558 277.571 232.164 278.123 231.736C279.236 230.872 280.746 229.899 282.407 229.361C284.057 228.828 285.792 228.741 287.456 229.54C289.129 230.344 290.898 232.124 292.439 235.674L293.357 235.276L294.274 234.878C292.615 231.056 290.57 228.817 288.322 227.737C286.065 226.653 283.771 226.818 281.792 227.459C279.824 228.095 278.105 229.218 276.897 230.156C276.288 230.629 275.797 231.063 275.457 231.381C275.287 231.541 275.154 231.671 275.062 231.764C275.016 231.81 274.98 231.847 274.955 231.873C274.942 231.886 274.932 231.896 274.925 231.903C274.922 231.907 274.919 231.91 274.917 231.913C274.916 231.914 274.915 231.915 274.914 231.915C274.914 231.916 274.913 231.916 274.913 231.916C274.913 231.917 274.912 231.917 275.642 232.601ZM293.357 235.276L292.439 235.674C297.399 247.102 293.544 255.65 291.179 258.374L291.935 259.029L292.69 259.685C295.539 256.402 299.552 247.04 294.274 234.878L293.357 235.276ZM291.935 259.029L291.273 258.28L269.943 277.118L270.605 277.868L271.267 278.617L292.597 259.779L291.935 259.029ZM245.721 235.276L244.81 234.864C243.844 237.002 242.898 239.873 241.787 243.066C240.667 246.287 239.359 249.898 237.646 253.62C234.223 261.061 229.199 268.902 220.902 274.828L221.483 275.642L222.065 276.456C230.743 270.257 235.954 262.083 239.463 254.456C241.217 250.644 242.551 246.958 243.676 243.723C244.811 240.461 245.715 237.719 246.633 235.688L245.721 235.276ZM270.605 277.868L270.789 276.885C267.693 276.308 265.055 276.337 262.618 276.936C260.184 277.534 258.013 278.685 255.834 280.263C253.665 281.834 251.456 283.852 248.96 286.202C246.453 288.563 243.641 291.275 240.222 294.292L240.883 295.042L241.545 295.792C244.996 292.746 247.843 290.002 250.331 287.658C252.832 285.304 254.955 283.369 257.007 281.883C259.048 280.405 260.985 279.397 263.096 278.878C265.204 278.36 267.548 278.315 270.422 278.851L270.605 277.868Z" fill="#171717"/>
<path d="M242.5 266.75C238.458 272.408 229.567 284.048 226.333 285.342" stroke="#171717" stroke-width="2" stroke-linecap="round"/>
<path d="M241.692 279.683C238.458 283.455 235.71 287.12 234.417 287.766" stroke="#171717" stroke-width="2" stroke-linecap="round"/>
<path d="M143.609 207.831C135.633 200.52 130.142 161.576 130.842 150.356C130.95 148.643 128.828 123.63 130.142 124.901C130.539 125.285 132.723 142.994 138.32 152.848C144.907 164.447 149.51 173.079 158.433 173.701C168.404 173.701 177.253 166.793 182.515 163.193C185.838 163.193 188.857 168.031 199.658 163.193C202.151 166.793 213.287 170.468 217.442 170.468C227.412 170.468 238.82 171.728 239.651 153.449C239.802 150.126 242.48 195.369 233.341 207.831C225.032 216.971 205.092 228.603 191.798 228.603C168.535 228.603 153.579 216.971 143.609 207.831Z" fill="#171717" stroke="#171717" stroke-width="1.79778" stroke-linecap="round"/>
<path d="M194.667 193.388C198.797 193.388 208.71 199.485 208.71 181.928C199.183 181.928 199.685 175.854 193.634 176.118C188.383 176.348 182.578 184.638 172.983 184.977C172.983 203.269 190.537 193.388 194.667 193.388Z" fill="#FDE8C3" stroke="#171717" stroke-width="1.79778" stroke-linecap="round"/>
<path d="M193.78 184.291C199.249 187.488 189.701 189.33 189.361 187.083C189.021 184.835 192.963 183.19 193.78 184.291Z" fill="#171717" stroke="#171717" stroke-width="1.79778" stroke-linecap="round"/>
<path d="M237.792 129.968C237.792 129.968 238.041 122.899 238.236 118.279C236.653 114.918 234.138 111.458 234.138 111.458C235.805 114.998 234.637 126.1 234.098 128.525C234.098 128.525 232.195 134.329 232.481 138.117C232.679 140.741 234.098 144.657 234.098 144.657V151.322C234.098 158.433 234.295 159.781 233.435 166.266C236.229 163.543 235.943 163.149 236.982 160.82C237.949 158.026 238.271 153.01 238.271 153.01C238.271 153.01 237.483 149.929 236.623 145.702C236.433 142.784 235.369 140.579 235.369 140.579L235.31 139.24L237.792 129.968Z" fill="#FCD99C"/>
</svg>
