<svg width="388" height="388" viewBox="0 0 388 388" fill="none" xmlns="http://www.w3.org/2000/svg">
<rect width="388" height="388" fill="white"/>
<path d="M90.6764 184.151C98.4309 179.443 116.765 172.851 128.065 184.151L130.557 204.922C130.557 204.922 138.035 204.922 138.866 208.653C155.206 211.146 188.55 217.959 191.209 225.27C193.868 232.582 199.518 248.811 202.01 256.011C112.278 321.649 59.9349 283.43 22.5467 256.011C24.4853 248.257 29.3597 231.252 33.3477 225.27C37.3358 219.288 66.5817 211.7 79.8753 208.653C82.3679 204.922 87.353 204.922 87.353 204.922L90.6764 184.151Z" fill="white"/>
<path d="M128.012 184.073C116.712 172.773 98.378 179.364 90.6234 184.073L87.3 204.844C110.564 221.461 125.796 211.768 130.504 204.844L128.012 184.073Z" fill="#FDE8C3" stroke="black" stroke-width="1.8" stroke-linecap="round"/>
<path d="M263.786 288.796C265.525 289.872 264.782 293.427 264.647 298.062C259.394 300.812 256.981 302.817 256.352 302.668C255.565 302.482 249.039 305.491 244.975 305.112C241.975 304.833 238.488 300.934 238.488 300.934C236.997 305.128 237.094 308.325 236.441 309.587C235.216 311.955 231.205 314.163 231.163 310.83L230.892 304.952L232.981 299.632L235.629 291.951C236.559 288.018 233.919 294.83 230.522 299.494C229.062 301.498 227.614 307.163 225.843 308.741C219.949 313.992 220.24 310.185 221.123 307.625C221.909 307.139 222.394 302.219 224.215 298.54L219.768 297.488C218.612 299.479 217.074 302.112 214.982 305.493C209.602 314.188 208.731 307.337 207.945 307.151C207.48 307.041 210.986 301.191 214.285 295.653C210.831 294.405 209.927 292.586 209.907 291.833C210.32 287.279 215.105 288.909 217.446 290.294C218.37 288.694 219.095 287.383 219.448 286.614C219.792 285.862 220.655 284.898 221.818 283.852L211.954 283.18L202.227 289.185C192.74 295.58 191.609 291.934 192.229 289.312C192.229 289.312 203.48 280.512 210.938 276.942C211.255 276.79 211.566 276.647 211.869 276.515C213.892 276.162 217.269 275.945 220.871 275.812C222.918 275.737 225.038 275.688 227.024 275.658C233.024 274.874 236.17 275.618 236.17 275.618C238.344 276.963 247.32 280.035 248.262 280.682C251.835 283.137 261.613 287.451 263.786 288.796Z" fill="#FDE8C3"/>
<path d="M236.17 275.618C238.344 276.963 247.32 280.035 248.262 280.682C251.835 283.137 261.613 287.451 263.786 288.796C265.525 289.872 264.782 293.427 264.647 298.062C259.394 300.812 256.981 302.817 256.352 302.668C255.565 302.482 249.039 305.491 244.975 305.112C241.975 304.833 238.488 300.934 238.488 300.934M236.17 275.618C232.438 275.3 226.45 279.685 221.818 283.852M236.17 275.618C236.17 275.618 233.024 274.874 227.024 275.658C225.038 275.688 222.918 275.737 220.871 275.812C217.269 275.945 213.892 276.162 211.869 276.515C211.566 276.647 211.255 276.79 210.938 276.942C203.48 280.512 192.229 289.312 192.229 289.312C191.609 291.934 192.74 295.58 202.227 289.185L211.954 283.18L221.818 283.852M229.074 288.06C227.39 289.323 223.829 291.97 223.051 292.45C222.457 292.817 221.584 294.359 219.768 297.488M229.074 288.06L231.436 284.315M229.074 288.06C228.462 289.46 228.224 289.929 227.357 291.807C226.531 293.595 225.084 296.782 224.215 298.54M221.818 283.852C220.655 284.898 219.792 285.862 219.448 286.614C219.095 287.383 218.37 288.694 217.446 290.294M217.446 290.294C215.105 288.909 210.32 287.279 209.907 291.833C209.927 292.586 210.831 294.405 214.285 295.653M217.446 290.294C216.53 291.879 215.42 293.747 214.285 295.653M214.285 295.653C210.986 301.191 207.48 307.041 207.945 307.151C208.731 307.337 209.602 314.188 214.982 305.493C217.074 302.112 218.612 299.479 219.768 297.488M219.768 297.488L224.215 298.54M224.215 298.54C222.394 302.219 221.909 307.139 221.123 307.625C220.24 310.185 219.949 313.992 225.843 308.741C227.614 307.163 229.062 301.498 230.522 299.494C233.919 294.83 236.559 288.018 235.629 291.951L232.981 299.632L230.892 304.952L231.163 310.83C231.205 314.163 235.216 311.955 236.441 309.587C237.094 308.325 236.997 305.128 238.488 300.934M238.488 300.934C239.794 297.261 242.708 293.626 243.081 292.053" stroke="#171717" stroke-width="2" stroke-linecap="round"/>
<circle cx="194.808" cy="285.342" r="9.50833" fill="white" stroke="#171717" stroke-width="2"/>
<path d="M87.3527 204.922C110.617 221.539 125.849 211.846 130.557 204.922C130.557 204.922 138.035 204.922 138.865 208.653C118.26 235.579 90.6761 219.736 79.8751 208.653C82.3676 204.922 87.3527 204.922 87.3527 204.922Z" fill="white"/>
<path d="M79.8751 208.653C82.3676 204.922 87.3527 204.922 87.3527 204.922C110.617 221.539 125.849 211.846 130.557 204.922C130.557 204.922 138.035 204.922 138.865 208.653M79.8751 208.653C90.6761 219.736 118.26 235.579 138.865 208.653M79.8751 208.653C66.5815 211.699 37.3356 219.288 33.3475 225.27C29.3594 231.252 16.1767 292.428 14.238 300.182C12.5763 305.721 11.9116 313.143 15.8996 321.784M138.865 208.653C155.205 211.146 188.55 217.959 191.209 225.27C193.868 232.581 199.517 248.811 202.01 256.011L207.742 277.258" stroke="#171717" stroke-width="1.79778" stroke-linecap="round"/>
<path d="M288.146 48.5H370.258C372.467 48.5 374.258 50.2909 374.258 52.5V373.492C374.258 375.701 372.467 377.492 370.258 377.492H189.381C187.393 377.492 185.706 376.031 185.422 374.063L178.284 324.559C178.02 322.726 179.045 320.95 180.756 320.243C185.621 318.231 196.086 313.784 208.55 307.768C210.036 307.05 211.551 306.311 213.087 305.55C223.453 300.42 234.834 294.342 245.357 287.765C246.516 287.041 247.213 285.763 247.213 284.396V177.708C247.213 176.753 246.856 175.801 246.237 175.075C229.533 155.483 234.004 158.408 201.713 120.654C201.093 119.928 200.728 118.999 200.728 118.045V52.4933C200.728 50.2842 202.519 48.5 204.728 48.5L288.146 48.5Z" fill="white"/>
<path d="M52.5415 125.291C35.5667 118.016 41.2248 99.4248 50.7972 103.603L50.7972 81.5328C50.7972 81.5328 79.877 53.2839 104.802 44.1445C120.079 41.0432 130.085 40.4324 143.022 49.1296C157.173 58.6438 160.469 86.5179 160.469 86.5179L160.05 98.6165C166.702 95.2951 168.133 105.891 158.981 114.748L160.469 121.414V138.031L143.022 156.309L108.126 145.508L79.877 156.309L53.2898 132.215L52.5415 125.291Z" fill="#FDE8C3"/>
<path d="M160.05 98.6165C166.702 95.2951 168.133 105.891 158.981 114.748L160.469 121.414V138.031L143.022 156.309L108.126 145.508L79.877 156.309L53.2898 132.215L52.5415 125.291C35.5667 118.016 41.2248 99.4248 50.7972 103.603L50.7972 81.5328C50.7972 81.5328 79.877 53.2839 104.802 44.1445C120.079 41.0432 130.085 40.4324 143.022 49.1296C157.173 58.6438 160.469 86.5179 160.469 86.5179L160.05 98.6165ZM160.05 98.6165L157.528 108.209" stroke="#171717" stroke-width="1.79778" stroke-linecap="round"/>
<path d="M115.436 95.1109C117.055 94.5309 115.716 91.4359 114.919 87.3095C112.82 84.6393 88.548 93.3403 89.0451 97.2695C97.6327 98.2985 113.818 95.691 115.436 95.1109Z" fill="#171717" stroke="#171717" stroke-width="1.79778"/>
<path d="M110.017 104.102C106.384 104.102 106.384 115.733 110.017 115.733C115.93 115.733 114.516 104.102 110.017 104.102Z" fill="#171717" stroke="#171717" stroke-width="1.79778"/>
<path d="M143.469 104.122C146.194 104.122 146.194 114.092 143.469 114.092C139.035 114.092 140.096 104.122 143.469 104.122Z" fill="#171717" stroke="#171717" stroke-width="1.79778"/>
<path d="M129.009 204.483L126.49 183.264C124.87 181.645 123.107 180.393 121.25 179.45L123.774 209.198C126.101 207.613 127.873 206.154 129.009 204.483Z" fill="#FCD99C"/>
<path d="M64.5606 177.045C56.5845 169.733 51.0931 130.79 51.7934 119.569C51.9015 117.856 51.3104 92.542 52.6243 93.8129C53.0213 94.1969 53.6743 112.207 59.2711 122.062C65.8582 133.66 76.1038 143.872 85.0274 144.495C94.9976 144.495 112.473 135.632 117.735 132.032C121.058 132.032 124.077 136.87 134.878 132.032C137.371 135.632 142.356 140.34 146.51 140.34C156.48 140.34 159.771 140.941 160.602 122.663C160.753 119.339 163.432 164.582 154.292 177.045C145.984 186.184 126.043 197.816 112.75 197.816C89.4861 197.816 74.5308 186.184 64.5606 177.045Z" fill="#171717" stroke="#171717" stroke-width="1.79778" stroke-linecap="round"/>
<path d="M117.263 129.703C120.872 132.21 129.911 135.722 137.204 129.703C138.63 128.525 133.88 99.8118 134.711 94.8267" stroke="#171717" stroke-width="1.79778" stroke-linecap="round"/>
<path d="M130.638 161.954C134.768 161.954 144.681 168.05 144.681 150.494C135.154 150.494 135.656 144.419 129.605 144.684C124.354 144.913 118.549 153.204 108.954 153.543C108.954 171.835 126.508 161.954 130.638 161.954Z" fill="#FDE8C3" stroke="#171717" stroke-width="1.79778" stroke-linecap="round"/>
<path d="M126.908 152.775C130.142 154.392 130.142 154.392 131.758 156.008C129.141 157.278 123.971 159.783 122.058 159.475C121.25 158.05 119.341 155.015 121.25 153.583C123.675 151.967 124.483 151.967 126.908 152.775Z" fill="#FCA5A5"/>
<path d="M136.608 153.583C135.541 154.01 134.957 154.457 131.758 156.008M118.825 159.242C119.073 159.352 121.769 159.429 122.058 159.475M131.758 156.008C130.142 154.392 130.142 154.392 126.908 152.775C124.483 151.967 123.675 151.967 121.25 153.583C119.341 155.015 121.25 158.05 122.058 159.475M131.758 156.008C129.141 157.278 123.971 159.783 122.058 159.475" stroke="#171717" stroke-width="1.79778" stroke-linecap="round"/>
<path d="M104.8 45.4036C79.8748 54.5429 52.4568 95.6573 50.795 94.8265C50.5181 86.6522 41.6558 74.0552 43.3174 63.2542C45.7602 54.7046 57.7912 41.867 65.7504 34.3454V31.6819C65.7504 30.851 71.5664 26.6968 73.2281 25.8659C74.5574 25.2013 76.5515 27.5276 76.5515 27.5276C76.5515 27.5276 97.3758 21.7577 110.616 23.3734C122.79 24.859 128.064 32.5127 128.064 32.5127C145.055 24.7737 168.968 16.9876 182.9 23.3734C202.841 32.5128 186.592 58.8 182.9 63.2542C178.161 68.9724 173.513 75.5119 160.434 83.5045C160.434 83.5045 157.171 59.9029 143.019 50.3887C130.083 41.6915 120.077 42.3023 104.8 45.4036Z" fill="#F0EDE1"/>
<path d="M104.8 45.4036C79.8748 54.5429 52.4568 95.6573 50.795 94.8265C50.5181 86.6522 41.6558 74.0552 43.3174 63.2542C45.7602 54.7046 57.7912 41.867 65.7504 34.3454M104.8 45.4036C120.077 42.3023 130.083 41.6915 143.019 50.3887C157.171 59.9029 160.434 83.5045 160.434 83.5045C173.513 75.5119 178.161 68.9724 182.9 63.2542C186.592 58.8 202.841 32.5128 182.9 23.3734C168.968 16.9876 145.055 24.7737 128.064 32.5127M104.8 45.4036C104.8 45.4036 113.623 39.0905 128.064 32.5127M76.5515 27.5276C76.5515 27.5276 97.3758 21.7577 110.616 23.3734C122.79 24.859 128.064 32.5127 128.064 32.5127M76.5515 27.5276C76.5515 27.5276 74.5574 25.2013 73.2281 25.8659C71.5664 26.6968 65.7504 30.851 65.7504 31.6819C65.7504 32.3466 65.7504 33.7345 65.7504 34.3454M76.5515 27.5276C76.5515 27.5276 68.62 31.6337 65.7504 34.3454" stroke="#171717" stroke-width="1.79778" stroke-linecap="round"/>
<path d="M155.759 290.538C149.928 300.974 140.575 301.862 139.056 301.624C139.056 301.624 38.1687 351.328 38.8 345.967C18.5916 341.925 23.4417 323.334 32.3334 314.442C39.8829 306.892 115.547 290.165 133.339 285.336C143.909 273.51 151.359 264.509 154.092 264.026C156.184 264.074 165.944 254.897 168.858 253.253C170.721 252.201 180.207 254.229 183.46 254.941C186.062 255.51 188.84 255.267 191.586 256.211C194.328 259.97 187.443 260.4 185.104 260.941C187.468 261.854 189.874 262.731 191.658 263.358C194.739 265.93 201.255 266.311 199.548 269.944C197.886 273.48 190.75 269.163 189.59 268.981C188.661 268.836 184.12 267.123 179.389 266.277C182.914 267.819 186.481 270.359 189.045 272.464C191.251 274.078 196.034 279.224 196.082 280.7C196.135 282.321 193.887 283.33 192.726 283.148C189.751 286.965 184.969 283.323 182.949 281.025L174.823 279.755L167.313 282.148L161.944 286.066L155.759 290.538Z" fill="#FDE8C3"/>
<path d="M156.46 288.295C156.348 288.499 155.87 290.34 155.759 290.538M155.759 290.538C149.928 300.974 140.575 301.862 139.056 301.624C139.056 301.624 38.1687 351.328 38.8 345.967C18.5916 341.925 23.4417 323.334 32.3334 314.442C39.8829 306.892 115.547 290.165 133.339 285.336C143.909 273.51 151.359 264.509 154.092 264.026C156.184 264.074 165.944 254.897 168.858 253.253C170.721 252.201 180.207 254.229 183.46 254.941C186.062 255.51 188.84 255.267 191.586 256.211C194.328 259.97 187.443 260.4 185.104 260.941M155.759 290.538L161.944 286.066L167.313 282.148L174.823 279.755L182.949 281.025C184.969 283.323 189.751 286.964 192.726 283.148M192.726 283.148L185.018 275.402L174.751 272.608C172.145 272.795 166.298 273.427 163.759 274.457M192.726 283.148C193.887 283.33 196.135 282.321 196.082 280.7C196.034 279.224 191.251 274.078 189.045 272.464C186.481 270.359 182.914 267.819 179.389 266.277M179.389 266.277C178.003 266.029 177.933 265.691 175.84 265.642C173.748 265.594 164.253 269.777 163.324 269.632M179.389 266.277C184.12 267.123 188.661 268.836 189.59 268.981C190.75 269.163 197.886 273.48 199.548 269.944C201.255 266.311 194.739 265.93 191.658 263.358C189.874 262.731 187.468 261.854 185.104 260.941M160.651 264.528C164.315 263.912 172.317 257.512 175.69 257.59C177.782 257.639 180.744 259.257 185.104 260.941" stroke="#171717" stroke-width="1.79778" stroke-linecap="round"/>
<path d="M195.328 293.534L200.728 311.466C202.213 310.778 203.745 310.061 205.317 309.315L199.748 292.152C199.289 290.736 197.631 290.115 196.354 290.881C195.445 291.426 195.022 292.519 195.328 293.534Z" fill="white"/>
<path d="M374.258 48.5H288.146C288.146 48.5 244.629 48.5 204.728 48.5C202.519 48.5 200.728 50.285 200.728 52.4941C200.728 67.7072 200.728 105.764 200.728 117.466C200.728 118.421 201.093 119.35 201.713 120.075C234.004 157.829 229.533 154.904 246.237 174.496C246.856 175.222 247.213 176.174 247.213 177.129C247.213 223.025 247.213 251.653 247.213 284.397C247.213 285.764 246.516 287.041 245.357 287.765C234.834 294.342 223.453 300.42 213.087 305.55C211.551 306.311 210.036 307.05 208.55 307.768C207.456 308.296 206.377 308.812 205.317 309.315M184.3 374.258L178.209 324.5C177.988 322.693 179.007 320.965 180.689 320.27C184.476 318.705 191.741 315.63 200.728 311.466M200.728 311.466L195.328 293.534C195.022 292.519 195.445 291.426 196.354 290.881C197.631 290.115 199.289 290.736 199.748 292.152L205.317 309.315M200.728 311.466C202.213 310.778 203.745 310.061 205.317 309.315" stroke="#171717" stroke-width="2" stroke-linecap="round"/>
<path d="M159.295 98.6167C159.295 98.6167 159.849 91.6775 159.242 87.3C156.773 69.5167 151.967 62.2417 150.35 60.625C151.158 66.2833 153.902 71.1069 155.2 84.0667C156.866 87.6068 155.42 96.1917 154.881 98.6167C154.881 98.6167 152.978 104.421 153.264 108.209C153.463 110.832 154.881 114.749 154.881 114.749V121.414C154.881 128.525 154.474 130.112 154.392 136.608C154.362 138.916 156.817 134.992 156.817 134.992L157.625 132.567C157.625 132.567 159.511 126.202 159.242 122.058C159.052 119.141 157.625 114.749 157.625 114.749L156.773 108.209L159.295 98.6167Z" fill="#FCD99C"/>
<path d="M137.7 87.8427C136.451 87.1703 137.83 84.6208 138.871 81.1187C140.823 79.0175 159.563 89.1034 158.782 92.4654C151.755 92.4654 138.949 88.5151 137.7 87.8427Z" fill="#171717" stroke="#171717" stroke-width="1.79778"/>
<path d="M125.431 31.4732C125.431 31.4732 119.923 25.1851 109.933 24.25C114.519 26.1386 121.715 30.869 121.715 33.2777C123.353 32.4674 123.606 32.3042 125.431 31.4732Z" fill="#DDD6BB"/>
</svg>
