<svg width="388" height="388" viewBox="0 0 388 388" fill="none" xmlns="http://www.w3.org/2000/svg">
<rect width="388" height="388" fill="var(--illustration-surface)"/>
<path d="M124.626 203.551C132.381 198.842 150.715 192.251 162.014 203.551L164.507 224.322C164.507 224.322 171.985 224.322 172.815 228.053C189.155 230.546 222.5 237.358 225.159 244.67C227.818 251.981 233.467 268.211 235.96 275.411C146.228 341.049 93.8847 302.829 56.4965 275.411C58.4351 267.657 63.3094 250.652 67.2975 244.67C71.2856 238.688 100.531 231.099 113.825 228.053C116.318 224.322 121.303 224.322 121.303 224.322L124.626 203.551Z" fill="var(--illustration-surface)"/>
<path d="M124.626 203.551C132.381 198.842 150.715 192.251 162.014 203.551L164.507 224.322C164.507 224.322 171.985 224.322 172.815 228.053C152.21 254.979 124.626 239.136 113.825 228.053C116.318 224.322 121.303 224.322 121.303 224.322L124.626 203.551Z" fill="var(--illustration-surface)"/>
<path d="M164.507 224.322L162.014 203.551C150.715 192.251 132.381 198.842 124.626 203.551L121.303 224.322M164.507 224.322C159.799 231.246 144.566 240.939 121.303 224.322M164.507 224.322C164.507 224.322 171.985 224.322 172.815 228.053M121.303 224.322C121.303 224.322 116.318 224.322 113.825 228.053M113.825 228.053C124.626 239.136 152.21 254.979 172.815 228.053M113.825 228.053C100.531 231.099 71.2856 238.688 67.2975 244.67C63.3094 250.652 50.1266 311.828 48.188 319.582C46.5263 325.121 45.8615 332.543 49.8496 341.184M172.815 228.053C189.155 230.546 222.5 237.358 225.159 244.67C227.818 251.981 233.467 268.211 235.96 275.411" stroke="var(--illustration-line-work)" stroke-width="1.79778" stroke-linecap="round"/>
<path d="M86.4918 144.692C69.5169 137.417 75.1751 118.825 84.7475 123.003L84.7475 100.933C84.7475 100.933 97.9414 77.6691 122.867 68.5297C138.143 65.4284 143.884 64.3992 162.475 68.5297C185.109 73.5583 194.42 105.918 194.42 105.918L194 118.017C200.652 114.695 202.083 125.292 192.931 134.148L194.42 140.814V157.431L176.972 175.709L142.076 164.908L113.827 175.709L87.24 151.615L86.4918 144.692Z" fill="var(--illustration-skin-tone-primary)"/>
<path d="M194 118.017C200.652 114.695 202.083 125.292 192.931 134.148L194.42 140.814V157.431L176.972 175.709L142.076 164.908L113.827 175.709L87.24 151.615L86.4918 144.692C69.5169 137.417 75.1751 118.825 84.7475 123.003L84.7475 100.933C84.7475 100.933 97.9414 77.6691 122.867 68.5297C138.143 65.4284 143.884 64.3992 162.475 68.5297C185.109 73.5583 194.42 105.918 194.42 105.918L194 118.017ZM194 118.017L191.478 127.609" stroke="var(--illustration-line-work)" stroke-width="1.79778" stroke-linecap="round"/>
<path d="M134.737 106.992C136.355 106.412 135.016 103.317 134.22 99.1904C132.12 96.5202 107.849 105.221 108.346 109.15C116.933 110.179 133.119 107.572 134.737 106.992Z" fill="var(--illustration-line-work)" stroke="var(--illustration-line-work)" stroke-width="1.79778"/>
<path d="M157.001 104.619C155.751 103.946 157.131 101.397 158.172 97.8946C160.124 95.7934 178.864 105.879 178.083 109.241C171.055 109.241 158.25 105.291 157.001 104.619Z" fill="var(--illustration-line-work)" stroke="var(--illustration-line-work)" stroke-width="1.79778"/>
<path d="M133.223 129.333C133.395 132.236 132.269 135.134 129.318 135.134C127.505 135.134 126.596 132.236 126.593 129.333" stroke="var(--illustration-line-work)" stroke-width="1.79778" stroke-linecap="round"/>
<path d="M159.917 127.717C159.546 130.443 160.318 133.492 162.77 133.492C164.277 133.492 164.95 130.443 164.791 127.717" stroke="var(--illustration-line-work)" stroke-width="1.79778" stroke-linecap="round"/>
<path d="M136.564 149.102C140.172 151.61 149.212 155.121 156.504 149.102C157.931 147.925 153.181 119.212 154.012 114.227" stroke="var(--illustration-line-work)" stroke-width="1.79778" stroke-linecap="round"/>
<path d="M150.453 300.361C141.882 306.517 137.858 303.525 134.827 304.375C134.827 304.375 75.4389 350.93 62.7826 350.434C59.8923 350.68 44.4625 342.718 48.3509 332.775C52.2393 322.831 106.613 295.637 124.46 291.013C124.46 291.013 123.974 284.293 125.187 280.264C126.095 277.25 127.302 274.052 127.302 274.052L127.971 266.456C129.003 265.628 131.206 263.902 132.673 266.783C134.139 269.665 132.976 276.997 132.189 278.305L133.131 280.156C139.451 273.201 141.577 273.042 143.19 271.407C144.901 269.672 154.245 257.733 157.178 256.123C158.43 255.435 160.751 254.782 161.621 255.065C162.708 255.419 164.279 257.499 164.01 258.324C163.657 259.412 158.798 263.462 156.523 265.527L151.665 272.019C150.826 272.748 147.429 276.171 147.722 276.747C148.015 277.323 162.099 265.195 168.207 259.97C169.66 259.194 173.422 257.848 174.301 260.603C175.154 263.281 173.598 263.769 172.118 265.009C169.971 266.809 165.945 268.99 162.576 271.477C157.297 275.373 152.098 279.128 151.925 279.659C151.736 280.242 158.422 276.707 164.581 273.068C167.605 271.281 170.475 270.424 173.526 269.425C175.831 268.67 177.063 268.2 178.375 269.443C178.962 270.595 179.048 272.198 178.567 273.854C177.999 275.809 172.868 274.199 168.319 277.793C163.092 281.921 157.071 285.835 157.071 285.835C157.071 285.835 163.997 284.028 169.112 281.837C174.482 279.538 179.533 278.57 179.66 279.125C181.114 280.199 180.675 283.398 179.799 284.235C179.516 285.105 172.823 286.128 170.186 288.076C166.765 289.571 158.535 292.987 158.535 292.987C158.535 292.987 158.496 294.543 156.412 296.341C154.064 298.367 150.453 300.361 150.453 300.361Z" fill="var(--illustration-skin-tone-primary)"/>
<path d="M134.827 304.375L134.585 303.51L134.413 303.558L134.273 303.668L134.827 304.375ZM150.453 300.361L150.019 299.575L149.972 299.6L149.929 299.631L150.453 300.361ZM156.412 296.341L155.824 295.661V295.661L156.412 296.341ZM158.535 292.987L158.191 292.157C157.863 292.293 157.646 292.609 157.637 292.964L158.535 292.987ZM170.186 288.076L170.546 288.899L170.638 288.859L170.72 288.799L170.186 288.076ZM157.178 256.123L156.746 255.335V255.335L157.178 256.123ZM143.19 271.407L143.83 272.038V272.038L143.19 271.407ZM124.46 291.013L124.685 291.883L125.41 291.696L125.356 290.948L124.46 291.013ZM48.3509 332.775L47.5137 332.447V332.447L48.3509 332.775ZM62.7826 350.434L62.8177 349.536L62.762 349.534L62.7064 349.539L62.7826 350.434ZM125.187 280.264L126.048 280.523V280.523L125.187 280.264ZM127.302 274.052L128.143 274.37L128.187 274.254L128.198 274.131L127.302 274.052ZM127.971 266.456L127.408 265.754L127.109 265.995L127.075 266.377L127.971 266.456ZM132.673 266.783L133.474 266.375L133.474 266.375L132.673 266.783ZM132.189 278.305L131.419 277.841C131.259 278.107 131.247 278.436 131.388 278.713L132.189 278.305ZM161.621 255.065L161.343 255.92L161.343 255.92L161.621 255.065ZM164.01 258.324L163.156 258.046L163.156 258.046L164.01 258.324ZM156.523 265.527L155.919 264.861L155.855 264.919L155.803 264.988L156.523 265.527ZM151.665 272.019L152.255 272.697L152.327 272.634L152.384 272.557L151.665 272.019ZM168.207 259.97L167.784 259.177L167.697 259.223L167.623 259.287L168.207 259.97ZM174.301 260.603L175.157 260.33L175.157 260.33L174.301 260.603ZM172.118 265.009L171.541 264.32V264.32L172.118 265.009ZM173.526 269.425L173.246 268.571V268.571L173.526 269.425ZM178.375 269.443L179.177 269.035L179.106 268.897L178.994 268.79L178.375 269.443ZM178.567 273.854L177.703 273.604V273.604L178.567 273.854ZM179.66 279.125L178.784 279.326L178.859 279.65L179.126 279.848L179.66 279.125ZM179.799 284.235L179.178 283.585L179.014 283.742L178.944 283.957L179.799 284.235ZM157.071 285.835L156.548 285.104C156.195 285.356 156.073 285.824 156.257 286.217C156.441 286.609 156.878 286.815 157.298 286.705L157.071 285.835ZM169.112 281.837L168.758 281.011V281.011L169.112 281.837ZM129.492 284.797C129.248 285.23 129.402 285.778 129.835 286.021C130.268 286.264 130.816 286.111 131.059 285.678L130.275 285.237L129.492 284.797ZM168.319 277.793L168.876 278.498V278.498L168.319 277.793ZM151.925 279.659L152.78 279.937L152.78 279.937L151.925 279.659ZM164.581 273.068L165.039 273.842V273.842L164.581 273.068ZM162.576 271.477L163.109 272.2V272.2L162.576 271.477ZM134.827 304.375L135.07 305.241C135.661 305.075 136.336 305.087 137.28 305.152C138.192 305.215 139.313 305.323 140.61 305.255C143.255 305.118 146.567 304.259 150.978 301.092L150.453 300.361L149.929 299.631C145.768 302.619 142.783 303.342 140.516 303.46C139.356 303.52 138.368 303.425 137.404 303.358C136.474 303.294 135.51 303.25 134.585 303.51L134.827 304.375ZM150.453 300.361C150.888 301.148 150.888 301.148 150.888 301.148C150.888 301.148 150.888 301.148 150.888 301.148C150.889 301.148 150.889 301.148 150.889 301.148C150.89 301.147 150.891 301.147 150.892 301.146C150.894 301.145 150.897 301.144 150.9 301.141C150.908 301.137 150.919 301.131 150.933 301.123C150.962 301.107 151.003 301.084 151.056 301.054C151.162 300.994 151.316 300.906 151.507 300.795C151.889 300.572 152.422 300.254 153.031 299.872C154.239 299.112 155.774 298.079 156.999 297.022L156.412 296.341L155.824 295.661C154.702 296.629 153.257 297.606 152.074 298.35C151.486 298.72 150.97 299.027 150.602 299.242C150.418 299.349 150.271 299.433 150.17 299.49C150.12 299.518 150.082 299.54 150.056 299.554C150.043 299.561 150.034 299.566 150.027 299.57C150.024 299.572 150.022 299.573 150.021 299.574C150.02 299.574 150.019 299.574 150.019 299.575C150.019 299.575 150.019 299.575 150.019 299.575C150.019 299.575 150.019 299.575 150.019 299.575C150.019 299.575 150.019 299.575 150.453 300.361ZM156.412 296.341L156.999 297.022C158.139 296.038 158.752 295.091 159.078 294.352C159.24 293.984 159.328 293.673 159.377 293.442C159.401 293.326 159.415 293.23 159.423 293.157C159.427 293.121 159.43 293.09 159.431 293.065C159.432 293.053 159.433 293.042 159.433 293.033C159.433 293.028 159.434 293.024 159.434 293.02C159.434 293.018 159.434 293.016 159.434 293.015C159.434 293.014 159.434 293.013 159.434 293.012C159.434 293.012 159.434 293.011 159.434 293.011C159.434 293.01 159.434 293.01 158.535 292.987C157.637 292.964 157.637 292.964 157.637 292.963C157.637 292.963 157.637 292.962 157.637 292.962C157.637 292.961 157.637 292.96 157.637 292.96C157.637 292.958 157.637 292.957 157.637 292.956C157.637 292.954 157.637 292.952 157.637 292.95C157.638 292.947 157.638 292.945 157.638 292.944C157.638 292.943 157.637 292.948 157.636 292.957C157.634 292.977 157.629 293.016 157.617 293.075C157.593 293.191 157.541 293.381 157.433 293.627C157.217 294.116 156.768 294.846 155.824 295.661L156.412 296.341ZM158.535 292.987C158.88 293.817 158.88 293.817 158.88 293.817C158.88 293.817 158.88 293.817 158.88 293.817C158.881 293.817 158.881 293.817 158.882 293.816C158.883 293.816 158.884 293.815 158.886 293.815C158.89 293.813 158.896 293.81 158.904 293.807C158.92 293.801 158.943 293.791 158.974 293.778C159.035 293.753 159.125 293.715 159.241 293.667C159.473 293.571 159.808 293.432 160.22 293.26C161.046 292.916 162.182 292.442 163.425 291.921C165.909 290.881 168.828 289.65 170.546 288.899L170.186 288.076L169.826 287.252C168.123 287.997 165.216 289.222 162.73 290.263C161.489 290.783 160.354 291.257 159.529 291.6C159.117 291.772 158.782 291.911 158.551 292.007C158.435 292.055 158.345 292.093 158.284 292.118C158.253 292.131 158.23 292.14 158.215 292.147C158.207 292.15 158.201 292.153 158.197 292.154C158.195 292.155 158.193 292.156 158.192 292.156C158.192 292.156 158.192 292.156 158.191 292.157C158.191 292.157 158.191 292.157 158.191 292.157C158.191 292.157 158.191 292.157 158.535 292.987ZM157.178 256.123L156.746 255.335C156.286 255.587 155.757 256.007 155.205 256.501C154.642 257.006 154.013 257.629 153.347 258.324C152.014 259.715 150.505 261.428 149.043 263.133C147.581 264.84 146.156 266.55 144.996 267.936C143.819 269.342 142.945 270.375 142.55 270.776L143.19 271.407L143.83 272.038C144.29 271.571 145.226 270.461 146.374 269.09C147.539 267.699 148.954 265.999 150.408 264.303C151.863 262.605 153.347 260.923 154.645 259.568C155.294 258.89 155.889 258.303 156.405 257.84C156.933 257.366 157.338 257.061 157.611 256.911L157.178 256.123ZM124.46 291.013L124.234 290.143C115.203 292.483 97.0695 300.481 80.7511 309.104C72.5803 313.422 64.8297 317.916 58.8689 321.961C55.8898 323.983 53.3403 325.905 51.4043 327.647C49.4977 329.363 48.0819 330.994 47.5137 332.447L48.3509 332.775L49.188 333.102C49.5919 332.069 50.7259 330.676 52.6069 328.983C54.4585 327.317 56.9343 325.447 59.8785 323.449C65.7641 319.454 73.4516 314.995 81.5911 310.694C97.8935 302.079 115.87 294.167 124.685 291.883L124.46 291.013ZM48.3509 332.775L47.5137 332.447C45.3502 337.98 48.6297 342.839 52.4394 346.108C54.3714 347.765 56.5164 349.089 58.37 349.986C59.2971 350.435 60.1644 350.783 60.9077 351.013C61.6203 351.233 62.3163 351.376 62.8588 351.33L62.7826 350.434L62.7064 349.539C62.5263 349.554 62.1079 349.502 61.4387 349.295C60.8001 349.098 60.0181 348.787 59.153 348.368C57.4221 347.53 55.4108 346.288 53.6101 344.743C49.9543 341.607 47.4631 337.513 49.188 333.102L48.3509 332.775ZM62.7826 350.434L62.7474 351.333C64.5497 351.403 67.0258 350.651 69.8687 349.423C72.7509 348.177 76.1439 346.379 79.8326 344.223C87.2126 339.909 95.8467 334.119 104.069 328.325C112.294 322.529 120.122 316.719 125.892 312.359C128.778 310.178 131.149 308.36 132.8 307.086C133.625 306.45 134.27 305.949 134.709 305.607C134.929 305.437 135.097 305.306 135.21 305.217C135.267 305.173 135.309 305.14 135.338 305.117C135.353 305.106 135.364 305.097 135.371 305.092C135.374 305.089 135.377 305.086 135.379 305.085C135.38 305.084 135.381 305.084 135.381 305.083C135.382 305.083 135.382 305.083 134.827 304.375C134.273 303.668 134.273 303.668 134.272 303.668C134.272 303.669 134.271 303.669 134.27 303.67C134.268 303.671 134.266 303.673 134.262 303.676C134.255 303.682 134.245 303.69 134.23 303.701C134.202 303.723 134.159 303.757 134.103 303.8C133.991 303.888 133.824 304.019 133.605 304.189C133.168 304.529 132.525 305.028 131.702 305.663C130.055 306.934 127.688 308.748 124.808 310.925C119.048 315.278 111.237 321.075 103.033 326.856C94.8264 332.639 86.2403 338.395 78.9254 342.671C75.2666 344.809 71.9435 346.567 69.1553 347.772C66.3279 348.995 64.1796 349.589 62.8177 349.536L62.7826 350.434ZM124.46 291.013C125.356 290.948 125.356 290.948 125.356 290.948C125.356 290.948 125.356 290.948 125.356 290.948C125.356 290.948 125.356 290.948 125.356 290.948C125.356 290.947 125.356 290.946 125.356 290.945C125.356 290.942 125.356 290.938 125.355 290.932C125.354 290.92 125.353 290.902 125.352 290.878C125.349 290.831 125.344 290.759 125.339 290.665C125.328 290.479 125.314 290.206 125.301 289.866C125.275 289.184 125.252 288.235 125.267 287.162C125.297 284.992 125.479 282.411 126.048 280.523L125.187 280.264L124.326 280.005C123.681 282.146 123.5 284.939 123.47 287.137C123.454 288.248 123.478 289.23 123.505 289.935C123.518 290.287 123.533 290.571 123.544 290.768C123.549 290.866 123.554 290.943 123.558 290.995C123.559 291.021 123.561 291.042 123.562 291.055C123.562 291.062 123.563 291.068 123.563 291.072C123.563 291.074 123.563 291.075 123.563 291.076C123.563 291.077 123.563 291.077 123.563 291.077C123.563 291.078 123.563 291.078 123.563 291.078C123.563 291.078 123.563 291.078 124.46 291.013ZM125.187 280.264L126.048 280.523C126.496 279.035 127.02 277.497 127.433 276.327C127.639 275.743 127.817 275.253 127.943 274.909C128.007 274.737 128.057 274.602 128.091 274.509C128.108 274.463 128.121 274.428 128.13 274.405C128.135 274.393 128.138 274.384 128.14 274.378C128.141 274.375 128.142 274.373 128.143 274.372C128.143 274.371 128.143 274.37 128.143 274.37C128.143 274.37 128.143 274.37 128.143 274.37C128.143 274.37 128.143 274.37 128.143 274.37C128.143 274.37 128.143 274.37 127.302 274.052C126.462 273.735 126.462 273.735 126.461 273.735C126.461 273.735 126.461 273.735 126.461 273.735C126.461 273.735 126.461 273.735 126.461 273.735C126.461 273.736 126.461 273.736 126.46 273.737C126.46 273.739 126.459 273.741 126.458 273.745C126.455 273.751 126.452 273.761 126.447 273.773C126.438 273.798 126.424 273.834 126.407 273.881C126.371 273.976 126.32 274.114 126.256 274.289C126.127 274.639 125.947 275.136 125.738 275.729C125.32 276.911 124.786 278.479 124.326 280.005L125.187 280.264ZM127.302 274.052L128.198 274.131L128.866 266.534L127.971 266.456L127.075 266.377L126.407 273.973L127.302 274.052ZM127.971 266.456L128.533 267.157C129.079 266.719 129.723 266.234 130.337 266.11C130.606 266.055 130.83 266.08 131.039 266.192C131.26 266.311 131.56 266.579 131.872 267.191L132.673 266.783L133.474 266.375C133.052 265.546 132.527 264.95 131.89 264.608C131.241 264.26 130.574 264.227 129.98 264.348C128.868 264.573 127.894 265.365 127.408 265.754L127.971 266.456ZM132.673 266.783L131.872 267.191C132.159 267.755 132.349 268.615 132.43 269.684C132.51 270.734 132.481 271.911 132.38 273.056C132.281 274.2 132.112 275.292 131.924 276.169C131.726 277.092 131.529 277.658 131.419 277.841L132.189 278.305L132.959 278.769C133.242 278.298 133.486 277.457 133.682 276.547C133.887 275.592 134.065 274.426 134.171 273.212C134.277 272.001 134.312 270.722 134.223 269.547C134.135 268.389 133.92 267.252 133.474 266.375L132.673 266.783ZM157.178 256.123L157.611 256.911C158.155 256.612 158.974 256.301 159.763 256.101C160.155 256.002 160.517 255.936 160.816 255.91C161.138 255.881 161.3 255.906 161.343 255.92L161.621 255.065L161.899 254.21C161.507 254.083 161.052 254.083 160.656 254.119C160.236 254.157 159.776 254.244 159.322 254.359C158.421 254.587 157.453 254.946 156.746 255.335L157.178 256.123ZM161.621 255.065L161.343 255.92C161.451 255.955 161.647 256.065 161.9 256.285C162.142 256.496 162.389 256.766 162.602 257.053C162.817 257.343 162.978 257.624 163.068 257.85C163.176 258.118 163.122 258.151 163.156 258.046L164.01 258.324L164.865 258.603C165.034 258.085 164.884 257.548 164.738 257.183C164.575 256.776 164.326 256.359 164.046 255.982C163.764 255.602 163.431 255.234 163.081 254.929C162.742 254.635 162.334 254.352 161.899 254.21L161.621 255.065ZM164.01 258.324L163.156 258.046C163.164 258.022 163.136 258.098 162.972 258.308C162.827 258.493 162.622 258.725 162.362 258.996C161.843 259.539 161.149 260.195 160.382 260.894C159.617 261.592 158.79 262.321 158.009 263.008C157.231 263.692 156.494 264.339 155.919 264.861L156.523 265.527L157.127 266.192C157.689 265.682 158.413 265.048 159.197 264.358C159.977 263.671 160.814 262.932 161.593 262.223C162.369 261.516 163.098 260.827 163.66 260.24C163.941 259.947 164.191 259.667 164.388 259.415C164.567 259.187 164.769 258.899 164.865 258.603L164.01 258.324ZM156.523 265.527L155.803 264.988L150.945 271.48L151.665 272.019L152.384 272.557L157.243 266.065L156.523 265.527ZM151.665 272.019L151.075 271.341C150.62 271.736 149.535 272.802 148.601 273.839C148.134 274.357 147.683 274.893 147.361 275.351C147.203 275.576 147.052 275.815 146.951 276.044C146.9 276.158 146.847 276.304 146.821 276.467C146.797 276.621 146.783 276.884 146.921 277.155L147.722 276.747L148.523 276.339C148.625 276.538 148.603 276.706 148.597 276.747C148.589 276.796 148.579 276.808 148.595 276.772C148.626 276.701 148.7 276.573 148.832 276.384C149.091 276.015 149.486 275.542 149.937 275.042C150.838 274.041 151.871 273.031 152.255 272.697L151.665 272.019ZM147.722 276.747L146.921 277.155C147.062 277.432 147.306 277.58 147.523 277.635C147.708 277.683 147.865 277.664 147.944 277.65C148.106 277.621 148.245 277.559 148.325 277.52C148.506 277.432 148.719 277.299 148.939 277.151C149.391 276.846 150.009 276.383 150.741 275.812C152.21 274.665 154.199 273.031 156.361 271.224C160.687 267.606 165.74 263.263 168.791 260.653L168.207 259.97L167.623 259.287C164.566 261.902 159.524 266.235 155.208 269.844C153.048 271.65 151.079 273.267 149.635 274.395C148.909 274.961 148.332 275.392 147.933 275.661C147.728 275.799 147.602 275.872 147.542 275.902C147.501 275.921 147.544 275.895 147.634 275.879C147.678 275.871 147.806 275.852 147.969 275.894C148.163 275.944 148.391 276.08 148.523 276.339L147.722 276.747ZM168.207 259.97L168.63 260.763C169.298 260.406 170.475 259.936 171.534 259.859C172.058 259.821 172.478 259.885 172.781 260.037C173.053 260.173 173.295 260.408 173.444 260.876L174.301 260.603L175.157 260.33C174.867 259.42 174.309 258.791 173.584 258.428C172.889 258.082 172.112 258.015 171.404 258.066C169.999 258.167 168.569 258.758 167.784 259.177L168.207 259.97ZM174.301 260.603L173.444 260.876C173.633 261.467 173.665 261.869 173.634 262.148C173.605 262.411 173.515 262.61 173.37 262.799C173.211 263.007 172.983 263.209 172.655 263.462C172.358 263.691 171.928 263.996 171.541 264.32L172.118 265.009L172.696 265.698C173.049 265.402 173.368 265.182 173.752 264.886C174.105 264.615 174.49 264.295 174.799 263.891C175.121 263.469 175.352 262.966 175.421 262.346C175.488 261.741 175.395 261.078 175.157 260.33L174.301 260.603ZM173.526 269.425L173.805 270.279C175.014 269.884 175.767 269.627 176.39 269.581C176.9 269.543 177.287 269.65 177.757 270.095L178.375 269.443L178.994 268.79C178.152 267.993 177.266 267.713 176.256 267.788C175.358 267.855 174.343 268.212 173.246 268.571L173.526 269.425ZM178.375 269.443L177.574 269.85C178.031 270.747 178.139 272.104 177.703 273.604L178.567 273.854L179.43 274.105C179.956 272.293 179.893 270.443 179.177 269.035L178.375 269.443ZM179.66 279.125L179.126 279.848C179.485 280.113 179.74 280.785 179.705 281.736C179.689 282.177 179.611 282.605 179.497 282.956C179.375 283.329 179.242 283.524 179.178 283.585L179.799 284.235L180.42 284.885C180.794 284.528 181.044 284.01 181.206 283.513C181.375 282.995 181.48 282.4 181.502 281.801C181.542 280.676 181.29 279.211 180.195 278.402L179.66 279.125ZM179.799 284.235L178.944 283.957C178.973 283.867 179.014 283.805 179.04 283.771C179.066 283.737 179.086 283.72 179.089 283.717C179.092 283.715 179.066 283.736 178.989 283.777C178.835 283.859 178.592 283.96 178.25 284.08C177.569 284.32 176.657 284.58 175.618 284.89C174.597 285.195 173.476 285.54 172.439 285.937C171.413 286.329 170.41 286.793 169.652 287.352L170.186 288.076L170.72 288.799C171.28 288.385 172.102 287.99 173.081 287.616C174.05 287.246 175.115 286.916 176.132 286.613C177.131 286.315 178.111 286.035 178.846 285.777C179.212 285.648 179.559 285.511 179.836 285.363C179.975 285.289 180.124 285.198 180.257 285.084C180.381 284.978 180.563 284.792 180.654 284.513L179.799 284.235ZM157.071 285.835C157.298 286.705 157.298 286.705 157.298 286.705C157.298 286.705 157.298 286.705 157.298 286.705C157.299 286.705 157.299 286.705 157.299 286.705C157.3 286.704 157.302 286.704 157.304 286.704C157.307 286.703 157.312 286.701 157.319 286.699C157.333 286.696 157.354 286.69 157.38 286.683C157.433 286.669 157.511 286.649 157.612 286.621C157.814 286.567 158.107 286.487 158.475 286.384C159.21 286.179 160.242 285.883 161.436 285.517C163.818 284.788 166.864 283.778 169.466 282.664L169.112 281.837L168.758 281.011C166.245 282.087 163.27 283.076 160.91 283.798C159.733 284.158 158.715 284.451 157.991 284.653C157.629 284.754 157.341 284.832 157.145 284.885C157.046 284.912 156.97 284.932 156.92 284.946C156.894 284.952 156.875 284.957 156.862 284.961C156.856 284.962 156.851 284.964 156.848 284.964C156.846 284.965 156.845 284.965 156.845 284.965C156.844 284.965 156.844 284.966 156.844 284.966C156.844 284.966 156.844 284.966 156.844 284.966C156.844 284.966 156.844 284.966 157.071 285.835ZM169.112 281.837L169.466 282.664C172.103 281.534 174.659 280.734 176.558 280.286C177.512 280.061 178.276 279.931 178.789 279.887C179.054 279.865 179.206 279.87 179.268 279.878C179.304 279.883 179.257 279.882 179.176 279.842C179.096 279.801 178.86 279.655 178.784 279.326L179.66 279.125L180.536 278.924C180.445 278.525 180.155 278.322 179.984 278.236C179.812 278.149 179.638 278.115 179.513 278.097C179.255 278.062 178.948 278.069 178.638 278.096C178.001 278.15 177.142 278.301 176.146 278.536C174.145 279.008 171.491 279.841 168.758 281.011L169.112 281.837ZM132.189 278.305L131.388 278.713L132.33 280.563L133.131 280.156L133.932 279.748L132.99 277.897L132.189 278.305ZM143.19 271.407L142.55 270.776C142.212 271.118 141.838 271.394 141.324 271.74C140.82 272.08 140.175 272.49 139.395 273.061C137.815 274.216 135.659 276.037 132.465 279.551L133.131 280.156L133.796 280.76C136.923 277.32 138.99 275.584 140.456 274.512C141.199 273.969 141.783 273.599 142.329 273.231C142.865 272.87 143.361 272.513 143.83 272.038L143.19 271.407ZM133.131 280.156L132.347 279.715L129.492 284.797L130.275 285.237L131.059 285.678L133.914 280.596L133.131 280.156ZM178.567 273.854L177.703 273.604C177.696 273.628 177.673 273.767 177.119 273.924C176.56 274.084 175.824 274.165 174.801 274.32C172.838 274.617 170.225 275.141 167.761 277.087L168.319 277.793L168.876 278.498C170.961 276.851 173.188 276.383 175.07 276.098C175.969 275.961 176.907 275.854 177.612 275.653C178.322 275.451 179.153 275.058 179.43 274.105L178.567 273.854ZM168.319 277.793L167.761 277.087C165.169 279.135 162.374 281.134 160.223 282.623C159.148 283.367 158.237 283.983 157.594 284.412C157.273 284.626 157.019 284.794 156.845 284.908C156.759 284.965 156.692 285.009 156.648 285.038C156.625 285.053 156.608 285.064 156.597 285.071C156.592 285.075 156.587 285.077 156.585 285.079C156.583 285.08 156.582 285.081 156.582 285.081C156.581 285.081 156.581 285.081 156.581 285.082C156.581 285.082 156.581 285.082 156.581 285.082C156.581 285.082 156.581 285.082 157.071 285.835C157.561 286.589 157.561 286.589 157.561 286.589C157.561 286.589 157.561 286.589 157.561 286.589C157.561 286.589 157.562 286.588 157.562 286.588C157.563 286.588 157.564 286.587 157.566 286.586C157.569 286.584 157.573 286.581 157.579 286.577C157.591 286.569 157.609 286.558 157.632 286.543C157.678 286.513 157.746 286.468 157.834 286.41C158.01 286.294 158.268 286.124 158.592 285.907C159.242 285.473 160.162 284.852 161.246 284.101C163.413 282.601 166.242 280.579 168.876 278.498L168.319 277.793ZM157.071 285.835L157.594 286.567L168.841 278.524L168.319 277.793L167.796 277.061L156.548 285.104L157.071 285.835ZM151.925 279.659L151.071 279.38C151.022 279.53 150.954 279.88 151.193 280.219C151.414 280.533 151.734 280.596 151.851 280.612C152.087 280.643 152.308 280.584 152.397 280.56C152.644 280.493 152.966 280.365 153.318 280.21C154.043 279.891 155.076 279.378 156.289 278.743C158.723 277.469 161.948 275.668 165.039 273.842L164.581 273.068L164.124 272.294C161.055 274.107 157.857 275.893 155.455 277.15C154.251 277.781 153.263 278.27 152.595 278.564C152.251 278.715 152.034 278.796 151.927 278.825C151.84 278.848 151.93 278.809 152.086 278.829C152.164 278.84 152.456 278.89 152.662 279.183C152.887 279.502 152.817 279.824 152.78 279.937L151.925 279.659ZM164.581 273.068L165.039 273.842C167.96 272.115 170.727 271.287 173.805 270.279L173.526 269.425L173.246 268.571C170.223 269.56 167.249 270.447 164.124 272.294L164.581 273.068ZM172.118 265.009L171.541 264.32C170.522 265.175 169.033 266.137 167.322 267.227C165.635 268.303 163.757 269.488 162.042 270.754L162.576 271.477L163.109 272.2C164.764 270.979 166.584 269.83 168.289 268.743C169.97 267.672 171.568 266.643 172.696 265.698L172.118 265.009ZM162.576 271.477L162.042 270.754C159.409 272.697 156.781 274.616 154.795 276.112C153.803 276.859 152.959 277.509 152.35 278.009C152.047 278.258 151.789 278.48 151.596 278.664C151.5 278.755 151.408 278.849 151.33 278.941C151.276 279.004 151.141 279.166 151.071 279.38L151.925 279.659L152.78 279.937C152.732 280.085 152.657 280.155 152.701 280.103C152.721 280.08 152.763 280.035 152.836 279.965C152.981 279.827 153.199 279.638 153.49 279.399C154.069 278.924 154.888 278.292 155.877 277.548C157.853 276.059 160.464 274.153 163.109 272.2L162.576 271.477Z" fill="var(--illustration-line-work)"/>
<path d="M287.968 83.8983C295.082 76.1383 302.249 84.7066 304.943 91.9816C307.099 85.7844 313.35 78.7249 321.11 83.8983C328.87 89.0717 313.566 107.609 304.943 116.232C296.321 108.687 280.855 91.6583 287.968 83.8983Z" fill="#EF4444" stroke="var(--illustration-line-work)" stroke-width="2" stroke-linejoin="round"/>
<path d="M250.155 129.676C254.806 124.715 259.492 130.193 261.254 134.845C262.663 130.882 266.751 126.369 271.824 129.676C276.898 132.984 266.892 144.837 261.254 150.35C255.617 145.526 245.505 134.638 250.155 129.676Z" fill="#EF4444" stroke="var(--illustration-line-work)" stroke-width="2" stroke-linejoin="round"/>
<path d="M306.58 153.646C310.611 149.394 314.672 154.089 316.199 158.077C317.421 154.68 320.963 150.811 325.36 153.646C329.757 156.482 321.085 166.641 316.199 171.367C311.313 167.232 302.55 157.899 306.58 153.646Z" fill="#EF4444" stroke="var(--illustration-line-work)" stroke-width="2" stroke-linejoin="round"/>
<path d="M161.962 205.089C150.662 193.79 132.328 200.381 124.573 205.089L121.25 225.86C144.514 242.477 159.746 232.784 164.454 225.86L161.962 205.089Z" fill="var(--illustration-skin-tone-primary)" stroke="var(--illustration-line-work)" stroke-width="1.8" stroke-linecap="round"/>
<path d="M162.959 225.5L160.44 204.281C158.821 202.661 157.057 201.409 155.2 200.467L157.724 230.215C160.051 228.63 161.823 227.171 162.959 225.5Z" fill="var(--illustration-skin-tone-secondary)"/>
<path d="M98.3425 195.797C90.3664 188.485 84.8751 149.542 85.5753 138.321C85.6835 136.608 85.0923 111.294 86.4062 112.565C86.8033 112.949 87.4563 130.959 93.053 140.814C99.6402 152.412 104.243 161.044 113.167 161.667C123.137 161.667 131.986 154.759 137.248 151.158C140.572 151.158 143.591 155.997 154.392 151.158C156.884 154.759 168.021 158.433 172.175 158.433C182.145 158.433 193.553 159.693 194.384 141.415C194.535 138.091 197.214 183.334 188.074 195.797C179.766 204.936 159.825 216.568 146.532 216.568C123.268 216.568 108.313 204.936 98.3425 195.797Z" fill="var(--illustration-line-work)" stroke="var(--illustration-line-work)" stroke-width="1.79778" stroke-linecap="round"/>
<path d="M137.674 71.2703C112.748 80.4096 85.3302 121.524 83.6684 120.693C83.3914 112.519 74.5291 99.9219 76.1908 89.1209C78.6335 80.5713 90.6645 67.7337 98.6238 60.2121V57.5486C98.6238 56.7177 104.44 52.5635 106.101 51.7326C107.431 51.068 109.425 53.3943 109.425 53.3943C109.425 53.3943 130.249 47.6244 143.49 49.2401C155.663 50.7257 160.937 58.3794 160.937 58.3794C177.928 50.6404 201.841 42.8543 215.774 49.2401C235.714 58.3795 219.465 84.6667 215.774 89.1209C211.035 94.8392 207.206 101.358 194.127 109.351C194.127 109.351 190.044 85.7696 175.893 76.2554C162.957 67.5582 152.95 68.169 137.674 71.2703Z" fill="var(--illustration-clothing-secondary)"/>
<path d="M137.674 71.2703C112.748 80.4096 85.3302 121.524 83.6684 120.693C83.3914 112.519 74.5291 99.9219 76.1908 89.1209C78.6335 80.5713 90.6645 67.7337 98.6238 60.2121M137.674 71.2703C152.95 68.169 162.957 67.5582 175.893 76.2554C190.044 85.7696 194.127 109.351 194.127 109.351C207.206 101.358 211.035 94.8391 215.774 89.1209C219.465 84.6667 235.714 58.3795 215.774 49.2401C201.841 42.8543 177.928 50.6404 160.937 58.3794M137.674 71.2703C137.674 71.2703 146.497 64.9572 160.937 58.3794M109.425 53.3943C109.425 53.3943 130.249 47.6244 143.49 49.2401C155.663 50.7257 160.937 58.3794 160.937 58.3794M109.425 53.3943C109.425 53.3943 107.431 51.068 106.101 51.7326C104.44 52.5635 98.6238 56.7177 98.6238 57.5486C98.6238 58.2133 98.6238 59.6012 98.6238 60.2121M109.425 53.3943C109.425 53.3943 101.493 57.5004 98.6238 60.2121" stroke="var(--illustration-line-work)" stroke-width="1.79778" stroke-linecap="round"/>
<path d="M149.4 181.354C153.53 181.354 163.443 187.45 163.443 169.894C153.916 169.894 154.418 163.819 148.367 164.084C143.117 164.313 137.311 172.604 127.717 172.943C127.717 191.235 145.27 181.354 149.4 181.354Z" fill="var(--illustration-skin-tone-primary)" stroke="var(--illustration-line-work)" stroke-width="1.79778" stroke-linecap="round"/>
<path d="M152.027 173.768C149.542 176.217 144.692 177.025 140.947 174.089" stroke="var(--illustration-line-work)" stroke-width="1.79778" stroke-linecap="round"/>
<path d="M192.866 109.825C192.671 114.445 192.536 119.464 192.536 119.464L190.044 127.924L190.103 129.262C190.103 129.262 191.167 131.468 191.357 134.385C192.216 138.613 193.009 141.021 193.009 141.021C193.009 141.021 192.682 146.709 191.715 149.504C190.676 151.832 190.881 151.593 188.086 154.316C188.946 147.832 188.831 147.117 188.831 140.005V133.34C188.831 133.34 187.413 129.424 187.214 126.801C186.928 123.013 188.831 117.208 188.831 117.208C189.361 114.824 191.503 103.839 190.297 100.671C190.256 100.571 190.233 100.518 190.233 100.518C190.256 100.566 190.277 100.617 190.297 100.671C190.656 101.545 192.43 106.003 192.866 109.825Z" fill="var(--illustration-skin-tone-secondary)"/>
<path d="M158.591 57.861C158.591 57.861 152.927 51.5981 142.938 50.6631C147.523 52.5517 154.876 57.2517 154.876 59.6604C156.515 58.8501 156.767 58.6919 158.591 57.861Z" fill="var(--illustration-clothing-tertiary)"/>
</svg>
